<svg xmlns="http://www.w3.org/2000/svg" xmlns:xlink="http://www.w3.org/1999/xlink" width="480" zoomAndPan="magnify" viewBox="0 0 360 359.999987" height="480" preserveAspectRatio="xMidYMid meet" version="1.0"><path fill="#ce4044" d="M 135.160156 244.058594 C 127.230469 244.992188 119.828125 244.25 113.433594 240.292969 C 109.695312 237.988281 106.300781 234.582031 103.34375 229.773438 C 105.398438 212.085938 111.113281 196.210938 117.507812 180.667969 C 121.597656 173.675781 128.742188 170.535156 135.609375 171.460938 C 144.542969 172.65625 153.011719 180.710938 153.679688 196.070312 C 150.800781 211.5 144.824219 227.46875 135.160156 244.058594 Z M 135.160156 244.058594 " fill-opacity="1" fill-rule="nonzero"/><path fill="#e4484c" d="M 113.433594 240.292969 C 109.695312 237.988281 106.300781 234.582031 103.34375 229.773438 C 105.398438 212.085938 111.113281 196.210938 117.507812 180.671875 C 121.597656 173.675781 128.742188 170.535156 135.609375 171.460938 C 125.898438 186.710938 118.453125 209.484375 113.433594 240.292969 Z M 113.433594 240.292969 " fill-opacity="1" fill-rule="nonzero"/><path fill="#ce4044" d="M 228.289062 241.996094 C 236.21875 242.929688 243.621094 242.183594 250.015625 238.230469 C 253.753906 235.925781 257.148438 232.515625 260.105469 227.710938 C 258.050781 210.023438 252.335938 194.148438 245.941406 178.605469 C 241.851562 171.613281 234.707031 168.472656 227.839844 169.398438 C 218.90625 170.59375 210.4375 178.648438 209.769531 194.007812 C 212.644531 209.4375 218.625 225.402344 228.289062 241.996094 Z M 228.289062 241.996094 " fill-opacity="1" fill-rule="nonzero"/><path fill="#e4484c" d="M 250.015625 238.230469 C 253.753906 235.925781 257.148438 232.515625 260.105469 227.710938 C 258.050781 210.023438 252.335938 194.148438 245.941406 178.605469 C 241.851562 171.613281 234.707031 168.472656 227.839844 169.398438 C 237.546875 184.648438 244.996094 207.421875 250.015625 238.230469 Z M 250.015625 238.230469 " fill-opacity="1" fill-rule="nonzero"/><path fill="#f0c808" d="M 226.21875 94.34375 C 226.21875 94.34375 244.691406 84.039062 244.691406 84.039062 C 245.332031 83.679688 245.453125 82.847656 244.925781 82.378906 C 244.925781 82.378906 236.445312 74.820312 236.445312 74.820312 C 235.925781 74.359375 235.070312 74.511719 234.726562 75.128906 C 234.726562 75.128906 224.734375 92.992188 224.734375 92.992188 C 224.214844 93.921875 225.265625 94.875 226.21875 94.34375 Z M 226.21875 94.34375 " fill-opacity="1" fill-rule="nonzero"/><path fill="#f0c808" d="M 235.972656 104.6875 C 235.972656 104.6875 260.65625 110.5 260.65625 110.5 C 261.515625 110.699219 262.296875 110.058594 262.210938 109.222656 C 262.210938 109.222656 260.8125 95.671875 260.8125 95.671875 C 260.726562 94.84375 259.84375 94.289062 259.039062 94.554688 C 259.039062 94.554688 235.75 102.292969 235.75 102.292969 C 234.539062 102.695312 234.699219 104.386719 235.972656 104.6875 Z M 235.972656 104.6875 " fill-opacity="1" fill-rule="nonzero"/><path fill="#f0c808" d="M 235.40625 123.203125 C 235.40625 123.203125 252.574219 135.558594 252.574219 135.558594 C 253.171875 135.988281 253.976562 135.742188 254.179688 135.070312 C 254.179688 135.070312 257.425781 124.183594 257.425781 124.183594 C 257.621094 123.519531 257.117188 122.808594 256.414062 122.757812 C 256.414062 122.757812 236 121.289062 236 121.289062 C 234.9375 121.214844 234.519531 122.566406 235.40625 123.203125 Z M 235.40625 123.203125 " fill-opacity="1" fill-rule="nonzero"/><path fill="#f0c808" d="M 132.082031 98.15625 C 132.082031 98.15625 113.609375 87.851562 113.609375 87.851562 C 112.964844 87.492188 112.847656 86.660156 113.371094 86.191406 C 113.371094 86.191406 121.855469 78.632812 121.855469 78.632812 C 122.371094 78.171875 123.226562 78.328125 123.574219 78.945312 C 123.574219 78.945312 133.5625 96.808594 133.5625 96.808594 C 134.082031 97.734375 133.035156 98.6875 132.082031 98.15625 Z M 132.082031 98.15625 " fill-opacity="1" fill-rule="nonzero"/><path fill="#f0c808" d="M 122.328125 108.503906 C 122.328125 108.503906 97.644531 114.316406 97.644531 114.316406 C 96.785156 114.515625 96.003906 113.875 96.089844 113.039062 C 96.089844 113.039062 97.488281 99.488281 97.488281 99.488281 C 97.574219 98.660156 98.457031 98.105469 99.261719 98.371094 C 99.261719 98.371094 122.550781 106.109375 122.550781 106.109375 C 123.757812 106.511719 123.601562 108.203125 122.328125 108.503906 Z M 122.328125 108.503906 " fill-opacity="1" fill-rule="nonzero"/><path fill="#f0c808" d="M 122.894531 127.015625 C 122.894531 127.015625 105.722656 139.371094 105.722656 139.371094 C 105.128906 139.800781 104.320312 139.554688 104.121094 138.882812 C 104.121094 138.882812 100.875 127.996094 100.875 127.996094 C 100.675781 127.332031 101.179688 126.621094 101.886719 126.570312 C 101.886719 126.570312 122.300781 125.101562 122.300781 125.101562 C 123.359375 125.027344 123.78125 126.378906 122.894531 127.015625 Z M 122.894531 127.015625 " fill-opacity="1" fill-rule="nonzero"/><path fill="#e4484c" d="M 231.726562 169.339844 C 234.847656 226.535156 224.707031 261.707031 185.871094 265.144531 C 185.871094 265.144531 185.867188 265.144531 185.867188 265.144531 C 184.644531 265.257812 183.390625 265.332031 182.105469 265.375 C 178.792969 265.222656 175.6875 264.847656 172.773438 264.269531 C 136.824219 257.179688 130.546875 219.148438 131.59375 173.46875 C 131.59375 173.46875 139.621094 173.136719 139.621094 173.136719 C 139.621094 173.136719 169.703125 171.898438 169.703125 171.898438 C 169.703125 171.898438 201.796875 170.574219 201.796875 170.574219 C 201.796875 170.574219 201.8125 170.574219 201.8125 170.574219 C 201.8125 170.574219 227.148438 169.527344 227.148438 169.527344 C 227.148438 169.527344 231.726562 169.339844 231.726562 169.339844 Z M 231.726562 169.339844 " fill-opacity="1" fill-rule="nonzero"/><path fill="#ce4044" d="M 227.148438 169.527344 C 227.996094 221.941406 218.058594 254.140625 185.8125 257.921875 C 185.8125 257.921875 185.808594 257.921875 185.808594 257.921875 C 184.742188 258.050781 183.648438 258.144531 182.53125 258.207031 C 179.648438 258.097656 176.953125 257.765625 174.425781 257.234375 C 144.613281 250.941406 138.765625 216.046875 139.621094 173.136719 C 139.621094 173.136719 169.703125 171.898438 169.703125 171.898438 C 169.703125 171.898438 201.796875 170.574219 201.796875 170.574219 C 201.796875 170.574219 201.8125 170.574219 201.8125 170.574219 C 201.8125 170.574219 227.148438 169.527344 227.148438 169.527344 Z M 227.148438 169.527344 " fill-opacity="1" fill-rule="nonzero"/><path fill="#2a245e" d="M 213.175781 188.359375 C 213.175781 188.359375 222.472656 187.578125 222.472656 187.578125 C 223.648438 187.476562 224.640625 188.433594 224.53125 189.554688 C 224.53125 189.554688 222.582031 208.996094 222.582031 208.996094 C 222.503906 209.773438 221.90625 210.414062 221.097656 210.554688 C 217.996094 211.089844 214.847656 211.046875 211.664062 210.542969 C 210.6875 210.390625 209.984375 209.554688 210.058594 208.617188 C 210.058594 208.617188 211.503906 189.980469 211.503906 189.980469 C 211.570312 189.117188 212.273438 188.4375 213.175781 188.359375 Z M 213.175781 188.359375 " fill-opacity="1" fill-rule="nonzero"/><path fill="#f0c808" d="M 213.316406 191.539062 C 213.316406 191.539062 213.265625 194.035156 213.265625 194.035156 C 213.257812 194.4375 213.617188 194.765625 214.035156 194.738281 C 214.035156 194.738281 221.324219 194.289062 221.324219 194.289062 C 221.667969 194.269531 221.945312 194.015625 221.976562 193.6875 C 221.976562 193.6875 222.257812 190.886719 222.257812 190.886719 C 222.300781 190.453125 221.914062 190.085938 221.460938 190.132812 C 221.460938 190.132812 213.945312 190.886719 213.945312 190.886719 C 213.589844 190.921875 213.324219 191.199219 213.316406 191.539062 Z M 213.316406 191.539062 " fill-opacity="1" fill-rule="nonzero"/><path fill="#f0c808" d="M 213.085938 197.65625 C 213.085938 197.65625 212.84375 200.089844 212.84375 200.089844 C 212.804688 200.476562 213.109375 200.820312 213.515625 200.847656 C 213.515625 200.847656 220.566406 201.304688 220.566406 201.304688 C 220.933594 201.328125 221.253906 201.085938 221.308594 200.738281 C 221.308594 200.738281 221.878906 197.179688 221.878906 197.179688 C 221.953125 196.738281 221.5625 196.347656 221.097656 196.386719 C 221.097656 196.386719 213.71875 197.054688 213.71875 197.054688 C 213.382812 197.085938 213.117188 197.335938 213.085938 197.65625 Z M 213.085938 197.65625 " fill-opacity="1" fill-rule="nonzero"/><path fill="#f0c808" d="M 212.414062 204.351562 C 212.414062 204.351562 212.132812 207.171875 212.132812 207.171875 C 212.09375 207.5625 212.410156 207.90625 212.820312 207.925781 C 212.820312 207.925781 220.148438 208.269531 220.148438 208.269531 C 220.527344 208.289062 220.847656 208.023438 220.882812 207.664062 C 220.882812 207.664062 221.191406 204.605469 221.191406 204.605469 C 221.230469 204.207031 220.898438 203.855469 220.476562 203.847656 C 220.476562 203.847656 213.125 203.746094 213.125 203.746094 C 212.757812 203.742188 212.449219 204.003906 212.414062 204.351562 Z M 212.414062 204.351562 " fill-opacity="1" fill-rule="nonzero"/><path fill="#2a245e" d="M 133.414062 176.460938 C 148.082031 184.933594 217.574219 181.832031 230.496094 172.195312 C 232.515625 170.6875 232.011719 167.609375 229.613281 166.644531 C 213.929688 160.339844 148.605469 161.394531 133.332031 170.378906 C 130.980469 171.757812 131.019531 175.078125 133.414062 176.460938 Z M 133.414062 176.460938 " fill-opacity="1" fill-rule="nonzero"/><path fill="#2a245e" d="M 184.535156 67.652344 C 184.082031 75.582031 182.015625 81.289062 179.175781 85.921875 C 179.175781 85.921875 188.796875 86.117188 188.796875 86.117188 C 185.609375 80.964844 185.433594 74.882812 187.601562 68.074219 C 187.601562 68.074219 184.535156 67.652344 184.535156 67.652344 Z M 184.535156 67.652344 " fill-opacity="1" fill-rule="nonzero"/><path fill="#ce4044" d="M 193.722656 91.933594 C 193.722656 91.933594 188.539062 91.65625 188.539062 91.65625 C 188.539062 91.65625 171.9375 90.765625 171.9375 90.765625 C 173.320312 87.1875 176.425781 84.71875 183.929688 85.066406 C 185.109375 85.160156 186.222656 85.265625 187.242188 85.414062 C 191.902344 86.078125 194.722656 87.539062 193.722656 91.933594 Z M 193.722656 91.933594 " fill-opacity="1" fill-rule="nonzero"/><path fill="#e4484c" d="M 193.722656 91.933594 C 193.722656 91.933594 188.539062 91.65625 188.539062 91.65625 C 189.6875 89.953125 189.039062 87.820312 187.242188 85.414062 C 191.902344 86.078125 194.722656 87.539062 193.722656 91.933594 Z M 193.722656 91.933594 " fill-opacity="1" fill-rule="nonzero"/><path fill="#f0c808" d="M 192.933594 64.570312 C 192.457031 68.035156 189.261719 70.453125 185.796875 69.976562 C 182.335938 69.496094 179.917969 66.304688 180.394531 62.839844 C 180.871094 59.378906 184.066406 56.960938 187.53125 57.4375 C 190.992188 57.914062 193.410156 61.109375 192.933594 64.570312 Z M 192.933594 64.570312 " fill-opacity="1" fill-rule="nonzero"/><path fill="#f3d339" d="M 192.933594 64.570312 C 192.453125 68.035156 189.261719 70.453125 185.796875 69.976562 C 185.292969 69.90625 184.808594 69.78125 184.355469 69.601562 C 187.199219 69.320312 189.589844 67.125 189.996094 64.167969 C 190.40625 61.210938 188.699219 58.449219 186.035156 57.40625 C 186.523438 57.359375 187.023438 57.367188 187.527344 57.4375 C 190.992188 57.914062 193.410156 61.109375 192.933594 64.570312 Z M 192.933594 64.570312 " fill-opacity="1" fill-rule="nonzero"/><path fill="#ce4044" d="M 223.351562 142.609375 C 223.265625 143.59375 222.789062 144.507812 222.015625 145.125 C 215.285156 150.519531 207.070312 154.46875 198.136719 156.8125 C 178.203125 162.050781 154.699219 159.324219 136.089844 146.917969 C 134.183594 145.644531 133.289062 143.308594 133.84375 141.085938 C 139.019531 120.429688 140.710938 97.691406 169.601562 91.226562 C 175.988281 89.796875 182.566406 89.660156 188.953125 90.820312 C 191.5 91.28125 194.019531 91.945312 196.484375 92.820312 C 215.617188 99.601562 225.652344 115.152344 223.351562 142.609375 Z M 223.351562 142.609375 " fill-opacity="1" fill-rule="nonzero"/><path fill="#e4484c" d="M 221.960938 145.171875 C 215.234375 150.542969 207.042969 154.472656 198.136719 156.8125 C 208.117188 139.886719 206.664062 107.648438 188.953125 90.820312 C 191.5 91.28125 194.019531 91.945312 196.484375 92.820312 C 215.597656 99.59375 225.636719 115.125 223.355469 142.535156 C 223.269531 143.566406 222.769531 144.527344 221.960938 145.171875 Z M 221.960938 145.171875 " fill-opacity="1" fill-rule="nonzero"/><path fill="#2a245e" d="M 184.125 100.441406 C 159.742188 98.585938 150.125 112.015625 145.296875 130.40625 C 141.976562 146.152344 157.128906 152.402344 173.667969 147.554688 C 178.308594 146.191406 183.238281 146.066406 187.878906 147.421875 C 201.871094 151.507812 213.839844 148.0625 212.746094 132.058594 C 213.292969 111.757812 201.378906 103.515625 184.125 100.441406 Z M 184.125 100.441406 " fill-opacity="1" fill-rule="nonzero"/><path fill="#ce4044" d="M 206.535156 281.515625 C 206.339844 281.835938 206.070312 282.097656 205.757812 282.269531 C 202.269531 284.164062 198.789062 285.515625 195.3125 286.324219 C 187.457031 288.15625 179.632812 287.21875 171.828125 283.601562 C 171.453125 283.425781 171.136719 283.121094 170.925781 282.738281 C 169.789062 280.640625 169.4375 278.542969 169.828125 276.453125 C 170.046875 275.285156 171.109375 274.535156 172.179688 274.785156 C 180.425781 276.714844 188.621094 276.9375 196.765625 275.253906 C 199.652344 274.664062 202.535156 273.828125 205.410156 272.746094 C 206.601562 272.296875 207.867188 273.1875 207.980469 274.550781 C 208.191406 277.144531 207.761719 279.484375 206.535156 281.515625 Z M 206.535156 281.515625 " fill-opacity="1" fill-rule="nonzero"/><path fill="#e4484c" d="M 206.535156 281.515625 C 206.339844 281.835938 206.070312 282.097656 205.757812 282.269531 C 202.269531 284.164062 198.789062 285.515625 195.3125 286.324219 C 198.738281 283.28125 199.582031 279.671875 196.765625 275.253906 C 199.652344 274.664062 202.535156 273.828125 205.410156 272.746094 C 206.601562 272.300781 207.867188 273.1875 207.980469 274.550781 C 208.191406 277.144531 207.761719 279.484375 206.535156 281.515625 Z M 206.535156 281.515625 " fill-opacity="1" fill-rule="nonzero"/><path fill="#ce4044" d="M 203.109375 296.015625 C 203.023438 296.464844 202.898438 296.914062 202.734375 297.359375 C 202.269531 298.628906 201.296875 299.609375 200.109375 300.046875 C 198.457031 300.65625 196.773438 301.167969 195.066406 301.59375 C 190.402344 302.75 185.546875 303.226562 180.5 303.046875 C 178.75 302.988281 177.132812 302.027344 176.164062 300.449219 C 175.664062 299.632812 175.335938 298.855469 175.207031 298.113281 C 174.898438 296.402344 176.152344 294.804688 177.753906 294.828125 C 184.160156 294.921875 190.285156 294.605469 195.996094 293.683594 C 197.4375 293.453125 198.847656 293.179688 200.226562 292.867188 C 201.953125 292.476562 203.460938 294.128906 203.109375 296.015625 Z M 203.109375 296.015625 " fill-opacity="1" fill-rule="nonzero"/><path fill="#e4484c" d="M 203.109375 296.015625 C 203.023438 296.464844 202.898438 296.914062 202.734375 297.359375 C 202.269531 298.628906 201.296875 299.609375 200.109375 300.046875 C 198.457031 300.65625 196.773438 301.167969 195.066406 301.59375 C 196.445312 299.300781 196.890625 296.710938 195.996094 293.683594 C 197.4375 293.453125 198.847656 293.179688 200.226562 292.867188 C 201.953125 292.476562 203.460938 294.128906 203.109375 296.015625 Z M 203.109375 296.015625 " fill-opacity="1" fill-rule="nonzero"/><path fill="#f0c808" d="M 235.039062 226.867188 C 235.039062 226.867188 137.796875 232.136719 137.796875 232.136719 C 133.082031 232.394531 128.992188 229.117188 128.105469 224.613281 C 128.019531 224.1875 127.964844 223.746094 127.9375 223.296875 C 127.9375 223.296875 126.585938 198.304688 126.585938 198.304688 C 126.304688 193.140625 130.261719 188.726562 135.425781 188.445312 C 135.425781 188.445312 232.667969 183.175781 232.667969 183.175781 C 233.359375 183.136719 234.035156 183.175781 234.691406 183.285156 C 238.9375 183.976562 242.28125 187.542969 242.527344 192.015625 C 242.527344 192.015625 243.878906 217.007812 243.878906 217.007812 C 244.160156 222.171875 240.199219 226.585938 235.039062 226.867188 Z M 235.039062 226.867188 " fill-opacity="1" fill-rule="nonzero"/><path fill="#f3d339" d="M 227.367188 219.449219 C 227.367188 219.449219 130.125 224.722656 130.125 224.722656 C 129.433594 224.757812 128.757812 224.722656 128.105469 224.613281 C 128.019531 224.1875 127.964844 223.746094 127.9375 223.296875 C 127.9375 223.296875 126.585938 198.304688 126.585938 198.304688 C 126.304688 193.140625 130.261719 188.726562 135.425781 188.445312 C 135.425781 188.445312 232.667969 183.175781 232.667969 183.175781 C 233.359375 183.136719 234.035156 183.175781 234.691406 183.285156 C 234.777344 183.710938 234.832031 184.152344 234.855469 184.597656 C 234.855469 184.597656 236.210938 209.59375 236.210938 209.59375 C 236.492188 214.757812 232.535156 219.167969 227.367188 219.449219 Z M 227.367188 219.449219 " fill-opacity="1" fill-rule="nonzero"/><path fill="#2a245e" d="M 148.820312 214.503906 C 148.820312 214.503906 146.273438 206.050781 146.273438 206.050781 C 146.273438 206.050781 144.664062 214.738281 144.664062 214.738281 C 144.535156 215.398438 144.433594 215.871094 144.351562 216.160156 C 144.273438 216.449219 144.121094 216.710938 143.894531 216.949219 C 143.667969 217.1875 143.359375 217.316406 142.964844 217.339844 C 142.644531 217.355469 142.378906 217.304688 142.164062 217.183594 C 141.949219 217.0625 141.773438 216.882812 141.632812 216.644531 C 141.488281 216.410156 141.367188 216.125 141.269531 215.796875 C 141.167969 215.464844 141.078125 215.160156 141 214.878906 C 141 214.878906 138.332031 205.375 138.332031 205.375 C 138.171875 204.820312 138.085938 204.398438 138.066406 204.105469 C 138.046875 203.738281 138.144531 203.417969 138.363281 203.152344 C 138.582031 202.886719 138.863281 202.742188 139.203125 202.722656 C 139.675781 202.695312 140 202.847656 140.183594 203.175781 C 140.363281 203.503906 140.535156 203.988281 140.691406 204.625 C 140.691406 204.625 142.835938 212.875 142.835938 212.875 C 142.835938 212.875 144.269531 204.960938 144.269531 204.960938 C 144.375 204.355469 144.476562 203.894531 144.570312 203.574219 C 144.660156 203.257812 144.828125 202.976562 145.0625 202.734375 C 145.300781 202.496094 145.632812 202.363281 146.0625 202.335938 C 146.5 202.3125 146.84375 202.414062 147.097656 202.636719 C 147.351562 202.859375 147.535156 203.109375 147.644531 203.382812 C 147.753906 203.65625 147.902344 204.113281 148.097656 204.746094 C 148.097656 204.746094 150.425781 212.449219 150.425781 212.449219 C 150.425781 212.449219 151.628906 204.011719 151.628906 204.011719 C 151.6875 203.570312 151.746094 203.222656 151.804688 202.972656 C 151.863281 202.722656 151.976562 202.496094 152.140625 202.289062 C 152.308594 202.085938 152.558594 201.972656 152.894531 201.953125 C 153.234375 201.933594 153.527344 202.042969 153.777344 202.28125 C 154.023438 202.519531 154.160156 202.824219 154.179688 203.203125 C 154.195312 203.46875 154.15625 203.898438 154.0625 204.488281 C 154.0625 204.488281 152.476562 214.230469 152.476562 214.230469 C 152.367188 214.890625 152.273438 215.371094 152.195312 215.679688 C 152.117188 215.988281 151.96875 216.261719 151.75 216.503906 C 151.535156 216.742188 151.21875 216.875 150.796875 216.898438 C 150.402344 216.921875 150.082031 216.828125 149.832031 216.621094 C 149.578125 216.414062 149.398438 216.171875 149.292969 215.902344 C 149.183594 215.632812 149.027344 215.164062 148.820312 214.503906 Z M 148.820312 214.503906 " fill-opacity="1" fill-rule="nonzero"/><path fill="#2a245e" d="M 164.382812 203.792969 C 164.382812 203.792969 158.550781 204.121094 158.550781 204.121094 C 158.550781 204.121094 158.75 207.628906 158.75 207.628906 C 158.75 207.628906 164.117188 207.328125 164.117188 207.328125 C 164.511719 207.304688 164.8125 207.390625 165.019531 207.578125 C 165.222656 207.761719 165.335938 208.019531 165.355469 208.34375 C 165.375 208.667969 165.292969 208.941406 165.113281 209.15625 C 164.933594 209.371094 164.640625 209.488281 164.242188 209.511719 C 164.242188 209.511719 158.871094 209.8125 158.871094 209.8125 C 158.871094 209.8125 159.101562 213.878906 159.101562 213.878906 C 159.101562 213.878906 165.132812 213.539062 165.132812 213.539062 C 165.539062 213.515625 165.851562 213.605469 166.066406 213.804688 C 166.285156 214.003906 166.40625 214.28125 166.425781 214.632812 C 166.445312 214.96875 166.355469 215.25 166.160156 215.472656 C 165.96875 215.695312 165.667969 215.816406 165.261719 215.839844 C 165.261719 215.839844 158.226562 216.238281 158.226562 216.238281 C 157.664062 216.269531 157.25 216.152344 156.988281 215.886719 C 156.726562 215.621094 156.578125 215.175781 156.542969 214.550781 C 156.542969 214.550781 155.9375 203.808594 155.9375 203.808594 C 155.914062 203.390625 155.949219 203.050781 156.046875 202.78125 C 156.140625 202.511719 156.304688 202.308594 156.53125 202.175781 C 156.761719 202.042969 157.058594 201.964844 157.425781 201.945312 C 157.425781 201.945312 164.257812 201.558594 164.257812 201.558594 C 164.667969 201.539062 164.980469 201.621094 165.191406 201.816406 C 165.40625 202.007812 165.519531 202.273438 165.539062 202.601562 C 165.558594 202.941406 165.472656 203.21875 165.285156 203.433594 C 165.09375 203.648438 164.792969 203.769531 164.382812 203.792969 Z M 164.382812 203.792969 " fill-opacity="1" fill-rule="nonzero"/><path fill="#2a245e" d="M 170.363281 202.734375 C 170.363281 202.734375 170.949219 213.136719 170.949219 213.136719 C 170.949219 213.136719 176.195312 212.839844 176.195312 212.839844 C 176.613281 212.816406 176.941406 212.914062 177.175781 213.128906 C 177.414062 213.34375 177.542969 213.621094 177.558594 213.964844 C 177.582031 214.316406 177.484375 214.609375 177.277344 214.839844 C 177.070312 215.066406 176.753906 215.195312 176.328125 215.21875 C 176.328125 215.21875 170.078125 215.570312 170.078125 215.570312 C 169.515625 215.601562 169.101562 215.484375 168.839844 215.21875 C 168.578125 214.953125 168.429688 214.507812 168.394531 213.882812 C 168.394531 213.882812 167.777344 202.878906 167.777344 202.878906 C 167.742188 202.292969 167.835938 201.847656 168.054688 201.542969 C 168.273438 201.238281 168.574219 201.074219 168.957031 201.050781 C 169.347656 201.03125 169.671875 201.15625 169.925781 201.433594 C 170.183594 201.707031 170.332031 202.140625 170.363281 202.734375 Z M 170.363281 202.734375 " fill-opacity="1" fill-rule="nonzero"/><path fill="#2a245e" d="M 189.070312 209.976562 C 189.09375 210.429688 189.019531 210.929688 188.851562 211.46875 C 188.679688 212.011719 188.394531 212.546875 187.992188 213.082031 C 187.589844 213.617188 187.066406 214.0625 186.414062 214.417969 C 185.765625 214.773438 184.996094 214.976562 184.105469 215.027344 C 183.433594 215.0625 182.816406 215.027344 182.257812 214.914062 C 181.695312 214.804688 181.183594 214.609375 180.714844 214.332031 C 180.246094 214.054688 179.8125 213.679688 179.40625 213.207031 C 179.042969 212.777344 178.726562 212.292969 178.457031 211.75 C 178.1875 211.207031 177.976562 210.625 177.824219 210 C 177.667969 209.375 177.570312 208.710938 177.53125 208.003906 C 177.46875 206.851562 177.558594 205.8125 177.808594 204.886719 C 178.054688 203.960938 178.4375 203.15625 178.960938 202.480469 C 179.480469 201.800781 180.109375 201.273438 180.839844 200.890625 C 181.570312 200.511719 182.359375 200.296875 183.207031 200.25 C 184.242188 200.191406 185.175781 200.371094 186.007812 200.789062 C 186.839844 201.203125 187.492188 201.738281 187.960938 202.394531 C 188.429688 203.050781 188.679688 203.679688 188.714844 204.285156 C 188.730469 204.613281 188.644531 204.914062 188.449219 205.179688 C 188.253906 205.445312 188.007812 205.585938 187.710938 205.601562 C 187.382812 205.621094 187.128906 205.546875 186.953125 205.378906 C 186.777344 205.214844 186.574219 204.921875 186.347656 204.503906 C 185.972656 203.816406 185.546875 203.308594 185.070312 202.980469 C 184.59375 202.65625 184.023438 202.511719 183.355469 202.550781 C 182.289062 202.609375 181.46875 203.109375 180.890625 204.046875 C 180.308594 204.988281 180.066406 206.289062 180.160156 207.953125 C 180.222656 209.0625 180.414062 209.980469 180.734375 210.703125 C 181.054688 211.425781 181.480469 211.953125 182.011719 212.289062 C 182.542969 212.625 183.152344 212.773438 183.839844 212.734375 C 184.582031 212.691406 185.199219 212.449219 185.691406 212.007812 C 186.179688 211.566406 186.535156 210.9375 186.75 210.125 C 186.839844 209.742188 186.960938 209.425781 187.109375 209.179688 C 187.257812 208.933594 187.511719 208.800781 187.875 208.78125 C 188.183594 208.761719 188.453125 208.867188 188.6875 209.097656 C 188.921875 209.324219 189.046875 209.617188 189.070312 209.976562 Z M 189.070312 209.976562 " fill-opacity="1" fill-rule="nonzero"/><path fill="#2a245e" d="M 196.453125 199.507812 C 197.777344 199.433594 198.933594 199.667969 199.914062 200.214844 C 200.898438 200.765625 201.667969 201.578125 202.214844 202.660156 C 202.765625 203.738281 203.085938 205.027344 203.167969 206.523438 C 203.230469 207.628906 203.152344 208.640625 202.9375 209.558594 C 202.71875 210.476562 202.363281 211.28125 201.867188 211.976562 C 201.367188 212.667969 200.742188 213.210938 199.980469 213.605469 C 199.222656 214 198.339844 214.226562 197.335938 214.28125 C 196.335938 214.339844 195.433594 214.210938 194.621094 213.894531 C 193.8125 213.578125 193.121094 213.105469 192.558594 212.476562 C 191.992188 211.851562 191.546875 211.085938 191.226562 210.175781 C 190.902344 209.269531 190.710938 208.277344 190.652344 207.207031 C 190.589844 206.109375 190.675781 205.09375 190.90625 204.160156 C 191.136719 203.226562 191.5 202.425781 192 201.75 C 192.496094 201.078125 193.121094 200.550781 193.867188 200.164062 C 194.617188 199.78125 195.476562 199.5625 196.453125 199.507812 Z M 200.542969 206.652344 C 200.484375 205.605469 200.28125 204.707031 199.9375 203.957031 C 199.59375 203.207031 199.128906 202.648438 198.546875 202.289062 C 197.964844 201.925781 197.308594 201.765625 196.582031 201.808594 C 196.066406 201.835938 195.59375 201.972656 195.167969 202.214844 C 194.742188 202.457031 194.382812 202.792969 194.085938 203.230469 C 193.792969 203.664062 193.574219 204.207031 193.425781 204.863281 C 193.28125 205.523438 193.230469 206.253906 193.277344 207.058594 C 193.320312 207.871094 193.453125 208.601562 193.675781 209.246094 C 193.894531 209.894531 194.183594 210.421875 194.542969 210.835938 C 194.898438 211.25 195.300781 211.550781 195.746094 211.742188 C 196.191406 211.933594 196.671875 212.011719 197.1875 211.984375 C 197.851562 211.945312 198.449219 211.726562 198.984375 211.324219 C 199.519531 210.921875 199.925781 210.328125 200.210938 209.535156 C 200.496094 208.742188 200.609375 207.78125 200.542969 206.652344 Z M 200.542969 206.652344 " fill-opacity="1" fill-rule="nonzero"/><path fill="#2a245e" d="M 209.976562 211.167969 C 209.976562 211.167969 207.417969 202.175781 207.417969 202.175781 C 207.417969 202.175781 207.972656 212.042969 207.972656 212.042969 C 208.003906 212.589844 207.917969 213.003906 207.714844 213.289062 C 207.511719 213.574219 207.230469 213.726562 206.871094 213.746094 C 206.523438 213.765625 206.230469 213.648438 205.992188 213.390625 C 205.757812 213.132812 205.625 212.726562 205.59375 212.175781 C 205.59375 212.175781 204.957031 200.867188 204.957031 200.867188 C 204.921875 200.242188 205.042969 199.8125 205.320312 199.582031 C 205.601562 199.347656 205.988281 199.214844 206.480469 199.1875 C 206.480469 199.1875 207.28125 199.140625 207.28125 199.140625 C 207.765625 199.117188 208.117188 199.144531 208.339844 199.230469 C 208.5625 199.316406 208.734375 199.480469 208.855469 199.730469 C 208.972656 199.976562 209.113281 200.382812 209.28125 200.945312 C 209.28125 200.945312 211.578125 208.671875 211.578125 208.671875 C 211.578125 208.671875 212.992188 200.738281 212.992188 200.738281 C 213.09375 200.160156 213.191406 199.738281 213.28125 199.480469 C 213.371094 199.21875 213.523438 199.035156 213.734375 198.925781 C 213.949219 198.816406 214.292969 198.75 214.777344 198.722656 C 214.777344 198.722656 215.578125 198.675781 215.578125 198.675781 C 216.074219 198.648438 216.472656 198.734375 216.773438 198.9375 C 217.078125 199.136719 217.246094 199.550781 217.28125 200.175781 C 217.28125 200.175781 217.914062 211.484375 217.914062 211.484375 C 217.945312 212.03125 217.859375 212.445312 217.65625 212.730469 C 217.457031 213.015625 217.171875 213.167969 216.804688 213.1875 C 216.460938 213.207031 216.171875 213.085938 215.9375 212.828125 C 215.699219 212.566406 215.566406 212.164062 215.535156 211.617188 C 215.535156 211.617188 214.980469 201.75 214.980469 201.75 C 214.980469 201.75 213.445312 210.972656 213.445312 210.972656 C 213.34375 211.570312 213.261719 212.011719 213.191406 212.292969 C 213.125 212.574219 212.980469 212.832031 212.769531 213.074219 C 212.554688 213.3125 212.246094 213.445312 211.847656 213.46875 C 211.542969 213.484375 211.285156 213.425781 211.066406 213.292969 C 210.851562 213.15625 210.675781 212.980469 210.546875 212.757812 C 210.417969 212.539062 210.3125 212.289062 210.230469 212.019531 C 210.148438 211.746094 210.0625 211.460938 209.976562 211.167969 Z M 209.976562 211.167969 " fill-opacity="1" fill-rule="nonzero"/><path fill="#2a245e" d="M 228.394531 200.195312 C 228.394531 200.195312 222.5625 200.523438 222.5625 200.523438 C 222.5625 200.523438 222.761719 204.035156 222.761719 204.035156 C 222.761719 204.035156 228.128906 203.730469 228.128906 203.730469 C 228.523438 203.707031 228.824219 203.792969 229.03125 203.980469 C 229.234375 204.167969 229.347656 204.421875 229.367188 204.746094 C 229.382812 205.074219 229.304688 205.34375 229.121094 205.558594 C 228.941406 205.773438 228.652344 205.894531 228.25 205.914062 C 228.25 205.914062 222.882812 206.214844 222.882812 206.214844 C 222.882812 206.214844 223.109375 210.28125 223.109375 210.28125 C 223.109375 210.28125 229.140625 209.941406 229.140625 209.941406 C 229.546875 209.921875 229.859375 210.007812 230.078125 210.207031 C 230.296875 210.40625 230.417969 210.683594 230.4375 211.035156 C 230.453125 211.371094 230.367188 211.652344 230.171875 211.875 C 229.976562 212.097656 229.679688 212.222656 229.269531 212.242188 C 229.269531 212.242188 222.238281 212.640625 222.238281 212.640625 C 221.675781 212.671875 221.261719 212.554688 221 212.289062 C 220.734375 212.023438 220.585938 211.578125 220.550781 210.953125 C 220.550781 210.953125 219.949219 200.210938 219.949219 200.210938 C 219.925781 199.792969 219.960938 199.453125 220.058594 199.183594 C 220.152344 198.914062 220.316406 198.710938 220.542969 198.578125 C 220.773438 198.445312 221.070312 198.367188 221.433594 198.347656 C 221.433594 198.347656 228.269531 197.964844 228.269531 197.964844 C 228.679688 197.941406 228.992188 198.023438 229.203125 198.21875 C 229.417969 198.414062 229.53125 198.675781 229.550781 199.007812 C 229.570312 199.34375 229.484375 199.621094 229.296875 199.835938 C 229.105469 200.054688 228.804688 200.171875 228.394531 200.195312 Z M 228.394531 200.195312 " fill-opacity="1" fill-rule="nonzero"/><path fill="#2a245e" d="M 108.699219 217.121094 C 108.257812 224.921875 111.316406 231.855469 116.714844 238.207031 C 119.253906 241.195312 123.234375 242.175781 126.363281 240.601562 C 130.964844 238.296875 135 235.589844 137.839844 232.042969 C 138.320312 231.441406 138.707031 230.757812 138.988281 230.015625 C 141.453125 223.472656 140.554688 216.898438 134.792969 210.28125 C 133.941406 209.300781 133.269531 208.160156 132.851562 206.925781 C 131.820312 203.875 130.050781 202.246094 127.773438 201.605469 C 125.882812 201.074219 123.957031 201.382812 122.335938 202.28125 C 117.8125 204.785156 113.953125 208.328125 110.46875 212.46875 C 109.410156 213.726562 108.800781 215.363281 108.699219 217.121094 Z M 108.699219 217.121094 " fill-opacity="1" fill-rule="nonzero"/><path fill="#2a245e" d="M 259.070312 213.9375 C 260.578125 221.484375 258.632812 228.800781 254.390625 235.960938 C 252.390625 239.335938 248.742188 240.996094 245.546875 240.015625 C 240.851562 238.578125 236.640625 236.648438 233.441406 233.6875 C 232.902344 233.1875 232.441406 232.585938 232.070312 231.910156 C 228.8125 225.953125 228.753906 219.371094 233.308594 211.882812 C 233.980469 210.773438 234.460938 209.539062 234.683594 208.261719 C 235.242188 205.09375 236.699219 203.191406 238.773438 202.160156 C 240.496094 201.304688 242.371094 201.265625 244.039062 201.855469 C 248.6875 203.5 252.851562 206.277344 256.738281 209.707031 C 257.921875 210.746094 258.730469 212.238281 259.070312 213.9375 Z M 259.070312 213.9375 " fill-opacity="1" fill-rule="nonzero"/><path fill="#f0c808" d="M 163.550781 128.273438 C 163.15625 130.441406 161.808594 132.09375 160.496094 131.949219 C 159.1875 131.804688 158.421875 129.929688 158.804688 127.753906 C 159.1875 125.566406 160.578125 124.070312 161.890625 124.210938 C 163.199219 124.355469 163.953125 126.054688 163.550781 128.273438 Z M 163.550781 128.273438 " fill-opacity="1" fill-rule="nonzero"/><path fill="#f0c808" d="M 196.59375 126.871094 C 196.648438 129.082031 197.75 130.90625 199.074219 130.886719 C 200.398438 130.867188 201.441406 128.996094 201.390625 126.796875 C 201.335938 124.59375 200.222656 123.042969 198.898438 123.066406 C 197.574219 123.085938 196.539062 124.664062 196.59375 126.871094 Z M 196.59375 126.871094 " fill-opacity="1" fill-rule="nonzero"/><path fill="#f0c808" d="M 189.847656 129.378906 C 189.976562 131.878906 186.160156 136.40625 181.175781 136.667969 C 176.191406 136.929688 171.921875 132.824219 171.792969 130.320312 C 171.660156 127.816406 175.777344 129.054688 180.761719 128.792969 C 185.75 128.535156 189.714844 126.875 189.847656 129.378906 Z M 189.847656 129.378906 " fill-opacity="1" fill-rule="nonzero"/></svg>