<svg xmlns="http://www.w3.org/2000/svg" xmlns:xlink="http://www.w3.org/1999/xlink" width="480" zoomAndPan="magnify" viewBox="0 0 360 359.999987" height="480" preserveAspectRatio="xMidYMid meet" version="1.0"><path fill="#2a245e" d="M 245.113281 225.523438 C 247.9375 229.910156 249.390625 234.296875 249.398438 238.683594 C 249.398438 238.683594 223.5 248.722656 223.5 248.722656 C 220.921875 244.449219 221.226562 240.3125 225.128906 236.34375 C 225.128906 236.34375 245.113281 225.523438 245.113281 225.523438 Z M 245.113281 225.523438 " fill-opacity="1" fill-rule="nonzero"/><path fill="#ce4044" d="M 248.214844 225.121094 C 248.300781 225.496094 248.136719 225.882812 247.804688 226.078125 C 247.804688 226.078125 243.664062 228.53125 243.664062 228.53125 C 243.664062 228.53125 221.515625 241.632812 221.515625 241.632812 C 209.894531 219.632812 204.914062 198.953125 219.777344 191.328125 C 220.855469 190.777344 222.035156 190.289062 223.328125 189.878906 C 237.21875 190.695312 243.707031 205.976562 248.214844 225.121094 Z M 248.214844 225.121094 " fill-opacity="1" fill-rule="nonzero"/><path fill="#ce4044" d="M 247.777344 226.097656 C 247.777344 226.097656 243.664062 228.53125 243.664062 228.53125 C 240.136719 210.929688 232.777344 197.8125 219.777344 191.328125 C 220.855469 190.777344 222.035156 190.289062 223.328125 189.878906 C 237.210938 190.695312 243.699219 205.957031 248.207031 225.085938 C 248.296875 225.480469 248.125 225.890625 247.777344 226.097656 Z M 247.777344 226.097656 " fill-opacity="1" fill-rule="nonzero"/><path fill="#ce4044" d="M 259.257812 280.394531 C 259.027344 281.863281 257.921875 283.027344 256.480469 283.386719 C 253.890625 284.027344 251.242188 284.484375 248.53125 284.769531 C 242.007812 285.457031 235.140625 285.121094 227.972656 283.867188 C 227.421875 283.773438 226.921875 283.472656 226.585938 283.027344 C 219.421875 273.566406 215.386719 262.453125 220.644531 246.410156 C 221.632812 247.683594 233.527344 243.691406 242 240.011719 C 245.828125 238.347656 248.957031 236.746094 250.066406 235.726562 C 250.347656 235.464844 250.800781 235.535156 250.984375 235.871094 C 260.03125 252.421875 261.367188 266.875 259.257812 280.394531 Z M 259.257812 280.394531 " fill-opacity="1" fill-rule="nonzero"/><path fill="#ce4044" d="M 256.480469 283.386719 C 253.890625 284.027344 251.242188 284.484375 248.53125 284.769531 C 250.601562 268.71875 249.214844 253.589844 242 240.011719 C 245.839844 238.34375 248.972656 236.738281 250.074219 235.71875 C 250.351562 235.460938 250.796875 235.53125 250.980469 235.863281 C 260.03125 252.414062 261.367188 266.875 259.257812 280.394531 C 259.027344 281.863281 257.921875 283.027344 256.480469 283.386719 Z M 256.480469 283.386719 " fill-opacity="1" fill-rule="nonzero"/><path fill="#2a245e" d="M 229.9375 288.9375 C 239.160156 287.714844 247.648438 287.558594 253.851562 290.710938 C 254.703125 291.144531 255.285156 291.976562 255.378906 292.925781 C 256.589844 305.308594 250.734375 311.433594 241.359375 314.4375 C 237.757812 314.585938 236.242188 312.980469 237.492188 309.050781 C 231.863281 310.207031 229.679688 307.503906 231.027344 300.867188 C 227.878906 302.121094 226.019531 301.601562 226.011719 298.535156 C 226.007812 297.277344 226.363281 296.042969 226.964844 294.941406 C 227.632812 293.714844 228.03125 292.394531 228.101562 290.960938 C 228.152344 289.929688 228.914062 289.074219 229.9375 288.9375 Z M 229.9375 288.9375 " fill-opacity="1" fill-rule="nonzero"/><path fill="#2a245e" d="M 82.925781 242.515625 C 80.097656 246.902344 78.648438 251.289062 78.636719 255.675781 C 78.636719 255.675781 104.535156 265.714844 104.535156 265.714844 C 107.117188 261.441406 106.8125 257.304688 102.90625 253.335938 C 102.90625 253.335938 82.925781 242.515625 82.925781 242.515625 Z M 82.925781 242.515625 " fill-opacity="1" fill-rule="nonzero"/><path fill="#ce4044" d="M 79.824219 242.113281 C 79.734375 242.488281 79.898438 242.878906 80.230469 243.070312 C 80.230469 243.070312 84.375 245.523438 84.375 245.523438 C 84.375 245.523438 106.523438 258.625 106.523438 258.625 C 118.140625 236.625 123.125 215.945312 108.261719 208.320312 C 107.183594 207.769531 106 207.285156 104.707031 206.871094 C 90.816406 207.6875 84.332031 222.96875 79.824219 242.113281 Z M 79.824219 242.113281 " fill-opacity="1" fill-rule="nonzero"/><path fill="#ce4044" d="M 80.261719 243.089844 C 80.261719 243.089844 84.375 245.523438 84.375 245.523438 C 87.898438 227.921875 95.257812 214.804688 108.261719 208.320312 C 107.183594 207.769531 106 207.28125 104.707031 206.871094 C 90.824219 207.6875 84.339844 222.949219 79.832031 242.078125 C 79.738281 242.472656 79.914062 242.882812 80.261719 243.089844 Z M 80.261719 243.089844 " fill-opacity="1" fill-rule="nonzero"/><path fill="#ce4044" d="M 68.777344 297.386719 C 69.007812 298.855469 70.117188 300.019531 71.558594 300.378906 C 74.144531 301.019531 76.796875 301.476562 79.503906 301.761719 C 86.027344 302.449219 92.894531 302.113281 100.0625 300.859375 C 100.613281 300.765625 101.113281 300.464844 101.449219 300.019531 C 108.613281 290.558594 112.648438 279.445312 107.390625 263.402344 C 106.402344 264.675781 94.507812 260.683594 86.035156 257.003906 C 82.207031 255.339844 79.078125 253.738281 77.96875 252.71875 C 77.6875 252.457031 77.238281 252.527344 77.050781 252.863281 C 68.003906 269.414062 66.667969 283.867188 68.777344 297.386719 Z M 68.777344 297.386719 " fill-opacity="1" fill-rule="nonzero"/><path fill="#ce4044" d="M 71.558594 300.378906 C 74.144531 301.019531 76.796875 301.476562 79.503906 301.761719 C 77.433594 285.710938 78.820312 270.582031 86.035156 257.003906 C 82.199219 255.335938 79.066406 253.730469 77.960938 252.710938 C 77.683594 252.453125 77.238281 252.523438 77.058594 252.855469 C 68.003906 269.40625 66.667969 283.867188 68.78125 297.386719 C 69.007812 298.855469 70.117188 300.023438 71.558594 300.378906 Z M 71.558594 300.378906 " fill-opacity="1" fill-rule="nonzero"/><path fill="#2a245e" d="M 98.464844 307.265625 C 89.425781 305.070312 81.003906 304.011719 74.5 306.488281 C 73.609375 306.824219 72.9375 307.589844 72.746094 308.523438 C 70.230469 320.707031 75.398438 327.421875 84.402344 331.402344 C 87.964844 331.933594 89.644531 330.5 88.816406 326.460938 C 94.292969 328.207031 96.75 325.753906 96.117188 319.011719 C 99.113281 320.589844 101.019531 320.273438 101.351562 317.222656 C 101.488281 315.972656 101.269531 314.707031 100.789062 313.546875 C 100.25 312.257812 99.996094 310.902344 100.078125 309.46875 C 100.136719 308.441406 99.46875 307.507812 98.464844 307.265625 Z M 98.464844 307.265625 " fill-opacity="1" fill-rule="nonzero"/><path fill="#ce4044" d="M 182.496094 299.957031 C 173.113281 302.714844 163.265625 303.605469 153.578125 302.273438 C 116.164062 297.125 97.746094 265.941406 94.332031 214.167969 C 94.332031 214.167969 101.417969 213.105469 101.417969 213.105469 C 101.417969 213.105469 224.417969 194.691406 224.417969 194.691406 C 224.417969 194.691406 231.945312 193.5625 231.945312 193.5625 C 244.636719 247.960938 231.453125 285.566406 182.496094 299.957031 Z M 182.496094 299.957031 " fill-opacity="1" fill-rule="nonzero"/><path fill="#ce4044" d="M 179.734375 288.402344 C 171.382812 290.910156 162.613281 291.71875 153.988281 290.507812 C 121.304688 285.921875 104.894531 258.5625 101.417969 213.105469 C 101.417969 213.105469 224.417969 194.691406 224.417969 194.691406 C 234.589844 242.519531 222.460938 275.589844 179.734375 288.402344 Z M 179.734375 288.402344 " fill-opacity="1" fill-rule="nonzero"/><path fill="#2a245e" d="M 207.652344 228.464844 C 211.246094 228.277344 215.269531 227.40625 219.578125 226.070312 C 220.710938 225.71875 221.867188 226.566406 221.878906 227.75 C 221.960938 236.429688 220.753906 244.128906 218.144531 250.753906 C 217.820312 251.574219 217.183594 252.238281 216.371094 252.585938 C 210.597656 255.054688 206 255.070312 202.253906 253.316406 C 201.546875 252.988281 201.148438 252.226562 201.296875 251.460938 C 201.296875 251.460938 205.414062 230.410156 205.414062 230.410156 C 205.628906 229.324219 206.546875 228.519531 207.652344 228.464844 Z M 207.652344 228.464844 " fill-opacity="1" fill-rule="nonzero"/><path fill="#ce4044" d="M 207.957031 232.441406 C 207.957031 232.441406 206.578125 237.761719 206.578125 237.761719 C 206.578125 237.761719 218.855469 236.710938 218.855469 236.710938 C 218.855469 236.710938 219.722656 231.191406 219.722656 231.191406 C 219.722656 231.191406 207.957031 232.441406 207.957031 232.441406 Z M 207.957031 232.441406 " fill-opacity="1" fill-rule="nonzero"/><path fill="#ce4044" d="M 206.355469 240.261719 C 206.355469 240.261719 218.25 239.40625 218.25 239.40625 C 218.25 239.40625 217.105469 243.808594 217.105469 243.808594 C 217.105469 243.808594 205.433594 244.53125 205.433594 244.53125 C 205.433594 244.53125 206.355469 240.261719 206.355469 240.261719 Z M 206.355469 240.261719 " fill-opacity="1" fill-rule="nonzero"/><path fill="#f0c808" d="M 205.75 247.332031 C 205.75 247.332031 216.726562 246.476562 216.726562 246.476562 C 216.726562 246.476562 215.671875 250.75 215.671875 250.75 C 215.671875 250.75 204.4375 251.011719 204.4375 251.011719 C 204.4375 251.011719 205.75 247.332031 205.75 247.332031 Z M 205.75 247.332031 " fill-opacity="1" fill-rule="nonzero"/><path fill="#2a245e" d="M 94.332031 214.171875 C 116.675781 231.125 228.394531 214.566406 231.945312 193.566406 C 217.195312 170.550781 94.332031 188.738281 94.332031 214.171875 Z M 94.332031 214.171875 " fill-opacity="1" fill-rule="nonzero"/><path fill="#2a245e" d="M 158.210938 79.546875 C 159.097656 90.65625 157.320312 98.980469 154.265625 105.964844 C 154.265625 105.964844 167.671875 104.386719 167.671875 104.386719 C 162.25 97.839844 160.84375 89.417969 162.546875 79.546875 C 162.546875 79.546875 158.210938 79.546875 158.210938 79.546875 Z M 158.210938 79.546875 " fill-opacity="1" fill-rule="nonzero"/><path fill="#ce4044" d="M 175.632812 111.527344 C 175.632812 111.527344 168.378906 112.132812 168.378906 112.132812 C 168.378906 112.132812 145.136719 114.078125 145.136719 114.078125 C 146.375 108.84375 150.210938 104.816406 160.710938 103.863281 C 162.367188 103.761719 163.929688 103.699219 165.378906 103.710938 C 171.980469 103.738281 176.179688 105.230469 175.632812 111.527344 Z M 175.632812 111.527344 " fill-opacity="1" fill-rule="nonzero"/><path fill="#ce4044" d="M 175.632812 111.527344 C 175.632812 111.527344 168.378906 112.132812 168.378906 112.132812 C 169.644531 109.550781 168.335938 106.707031 165.378906 103.707031 C 171.980469 103.738281 176.179688 105.230469 175.632812 111.527344 Z M 175.632812 111.527344 " fill-opacity="1" fill-rule="nonzero"/><path fill="#f0c808" d="M 169.285156 73.65625 C 169.285156 78.558594 165.3125 82.535156 160.410156 82.535156 C 155.507812 82.535156 151.53125 78.558594 151.53125 73.65625 C 151.53125 68.753906 155.507812 64.777344 160.410156 64.777344 C 165.3125 64.777344 169.285156 68.753906 169.285156 73.65625 Z M 169.285156 73.65625 " fill-opacity="1" fill-rule="nonzero"/><path fill="#f3d339" d="M 169.285156 73.65625 C 169.285156 78.558594 165.3125 82.535156 160.40625 82.535156 C 159.691406 82.535156 158.992188 82.449219 158.328125 82.289062 C 162.230469 81.351562 165.128906 77.84375 165.128906 73.65625 C 165.128906 69.46875 162.230469 65.960938 158.328125 65.023438 C 158.992188 64.863281 159.691406 64.777344 160.40625 64.777344 C 165.3125 64.777344 169.285156 68.753906 169.285156 73.65625 Z M 169.285156 73.65625 " fill-opacity="1" fill-rule="nonzero"/><path fill="#ce4044" d="M 226.523438 176.261719 C 226.597656 177.644531 226.105469 179.003906 225.152344 180.011719 C 216.832031 188.796875 206.171875 195.859375 194.210938 200.832031 C 167.519531 211.9375 134.335938 212.65625 106.09375 198.984375 C 103.199219 197.582031 101.507812 194.507812 101.855469 191.3125 C 105.085938 161.617188 103.074219 129.699219 141.976562 115.171875 C 150.578125 111.960938 159.695312 110.507812 168.789062 110.894531 C 172.417969 111.042969 176.046875 111.484375 179.640625 112.226562 C 207.523438 117.980469 224.457031 137.664062 226.523438 176.261719 Z M 226.523438 176.261719 " fill-opacity="1" fill-rule="nonzero"/><path fill="#ce4044" d="M 179.539062 217.421875 C 179.539062 217.421875 182.804688 215.601562 182.804688 215.601562 C 181.765625 216.292969 180.675781 216.902344 179.539062 217.421875 Z M 179.539062 217.421875 " fill-opacity="1" fill-rule="nonzero"/><path fill="#ce4044" d="M 225.082031 180.089844 C 216.769531 188.839844 206.140625 195.875 194.210938 200.832031 C 204.832031 175.398438 196.628906 130.878906 168.789062 110.894531 C 172.417969 111.042969 176.046875 111.484375 179.640625 112.226562 C 207.5 117.976562 224.425781 137.628906 226.519531 176.15625 C 226.597656 177.609375 226.082031 179.035156 225.082031 180.089844 Z M 225.082031 180.089844 " fill-opacity="1" fill-rule="nonzero"/><path fill="#2a245e" d="M 163.925781 125.1875 C 129.691406 127.285156 118.902344 147.792969 115.722656 174.277344 C 114.128906 196.792969 136.382812 202.574219 158.433594 192.660156 C 164.621094 189.878906 171.445312 188.761719 178.15625 189.753906 C 198.382812 192.742188 214.351562 185.660156 209.765625 163.632812 C 206.628906 135.320312 188.492188 126.152344 163.925781 125.1875 Z M 163.925781 125.1875 " fill-opacity="1" fill-rule="nonzero"/><path fill="#ce4044" d="M 195.4375 319.097656 C 195.15625 319.5 194.769531 319.824219 194.320312 320.027344 C 189.367188 322.292969 184.441406 323.851562 179.539062 324.71875 C 168.460938 326.679688 157.519531 325.082031 146.707031 320.035156 C 146.183594 319.792969 145.746094 319.382812 145.46875 318.882812 C 143.945312 316.125 143.523438 313.414062 144.148438 310.746094 C 144.496094 309.25 146.011719 308.34375 147.5 308.71875 C 158.996094 311.613281 170.480469 312.3125 181.957031 310.558594 C 186.027344 309.941406 190.09375 309.007812 194.164062 307.765625 C 195.851562 307.25 197.597656 308.453125 197.703125 310.214844 C 197.910156 313.558594 197.226562 316.546875 195.4375 319.097656 Z M 195.4375 319.097656 " fill-opacity="1" fill-rule="nonzero"/><path fill="#ce4044" d="M 195.4375 319.097656 C 195.15625 319.5 194.769531 319.824219 194.320312 320.027344 C 189.367188 322.292969 184.441406 323.851562 179.539062 324.71875 C 184.445312 320.976562 185.753906 316.375 181.957031 310.558594 C 186.027344 309.941406 190.09375 309.007812 194.164062 307.765625 C 195.851562 307.25 197.597656 308.453125 197.703125 310.214844 C 197.910156 313.558594 197.226562 316.546875 195.4375 319.097656 Z M 195.4375 319.097656 " fill-opacity="1" fill-rule="nonzero"/><path fill="#ce4044" d="M 189.964844 334.621094 C 189.828125 335.195312 189.636719 335.769531 189.386719 336.332031 C 188.695312 337.941406 187.296875 339.15625 185.617188 339.65625 C 183.277344 340.355469 180.902344 340.933594 178.492188 341.390625 C 171.914062 342.644531 165.089844 343.011719 158.015625 342.53125 C 155.566406 342.363281 153.332031 341.046875 152.03125 338.96875 C 151.355469 337.898438 150.925781 336.878906 150.769531 335.917969 C 150.398438 333.699219 152.207031 331.710938 154.453125 331.824219 C 163.429688 332.265625 172.027344 332.164062 180.070312 331.265625 C 182.097656 331.039062 184.082031 330.761719 186.03125 330.429688 C 188.464844 330.011719 190.523438 332.214844 189.964844 334.621094 Z M 189.964844 334.621094 " fill-opacity="1" fill-rule="nonzero"/><path fill="#ce4044" d="M 189.964844 334.621094 C 189.828125 335.195312 189.636719 335.769531 189.386719 336.332031 C 188.695312 337.941406 187.296875 339.15625 185.617188 339.65625 C 183.277344 340.355469 180.902344 340.933594 178.492188 341.390625 C 180.507812 338.511719 181.21875 335.199219 180.070312 331.261719 C 182.097656 331.039062 184.082031 330.761719 186.03125 330.429688 C 188.464844 330.011719 190.523438 332.214844 189.964844 334.621094 Z M 189.964844 334.621094 " fill-opacity="1" fill-rule="nonzero"/><path stroke-linecap="round" transform="matrix(0.333333, 0, 0, 0.333333, 139.997662, 161.063322)" fill="none" stroke-linejoin="round" d="M -22.082831 -16.561062 C -22.082831 -16.561062 22.085139 16.556127 22.085139 16.556127 " stroke="#f0c808" stroke-width="6" stroke-opacity="1" stroke-miterlimit="4"/><path stroke-linecap="round" transform="matrix(0.333333, 0, 0, 0.333333, 139.736672, 160.882648)" fill="none" stroke-linejoin="round" d="M -21.299859 21.832525 C -21.299859 21.832525 21.297798 -21.831539 21.297798 -21.831539 " stroke="#f0c808" stroke-width="6" stroke-opacity="1" stroke-miterlimit="4"/><path stroke-linecap="round" transform="matrix(0.333333, 0, 0, 0.333333, 184.317326, 157.300329)" fill="none" stroke-linejoin="round" d="M 22.075367 -16.557238 C 22.075367 -16.557238 -22.080884 16.55995 -22.080884 16.55995 " stroke="#f0c808" stroke-width="6" stroke-opacity="1" stroke-miterlimit="4"/><path stroke-linecap="round" transform="matrix(0.333333, 0, 0, 0.333333, 184.578333, 157.119655)" fill="none" stroke-linejoin="round" d="M 21.292346 21.836349 C 21.292346 21.836349 -21.293593 -21.839434 -21.293593 -21.839434 " stroke="#f0c808" stroke-width="6" stroke-opacity="1" stroke-miterlimit="4"/><path fill="#f0c808" d="M 173.382812 173.394531 C 174.042969 176.925781 169.527344 174.515625 164.308594 175.492188 C 159.09375 176.464844 155.148438 180.457031 154.488281 176.921875 C 153.828125 173.390625 157.144531 167.703125 162.363281 166.726562 C 167.582031 165.753906 172.726562 169.863281 173.382812 173.394531 Z M 173.382812 173.394531 " fill-opacity="1" fill-rule="nonzero"/><path fill="#2a245e" d="M 289.144531 160.019531 C 303.527344 156.378906 312.367188 142.269531 308.886719 128.507812 C 308.410156 126.632812 307.734375 124.859375 306.878906 123.210938 C 315.421875 115.820312 319.617188 104.316406 316.753906 93.011719 C 314.453125 83.910156 308.066406 76.867188 299.90625 73.199219 C 299.863281 71.835938 299.675781 70.460938 299.328125 69.089844 C 296.652344 58.511719 285.515625 52.203125 274.457031 55 C 271.207031 55.824219 268.320312 57.34375 265.941406 59.347656 C 260.570312 55.773438 253.628906 54.410156 246.710938 56.164062 C 234.0625 59.363281 226.292969 71.769531 229.355469 83.867188 C 229.394531 84.023438 229.4375 84.1875 229.484375 84.339844 C 229.480469 84.34375 229.480469 84.34375 229.476562 84.34375 C 217.097656 87.476562 209.5 99.613281 212.496094 111.449219 C 214.742188 120.332031 222.3125 126.519531 231.183594 127.734375 C 234.46875 140.0625 246.230469 148.042969 259.050781 147.460938 C 264.59375 157.636719 276.910156 163.117188 289.144531 160.019531 Z M 289.144531 160.019531 " fill-opacity="1" fill-rule="nonzero"/></svg>