<svg xmlns="http://www.w3.org/2000/svg" xmlns:xlink="http://www.w3.org/1999/xlink" width="480" zoomAndPan="magnify" viewBox="0 0 360 359.999987" height="480" preserveAspectRatio="xMidYMid meet" version="1.0"><path fill="#2a245e" d="M 265.785156 218.984375 C 265.785156 225.65625 260.148438 231.070312 253.199219 231.070312 C 246.25 231.070312 240.613281 225.65625 240.613281 218.984375 C 240.613281 212.308594 246.25 206.898438 253.199219 206.898438 C 260.148438 206.898438 265.785156 212.308594 265.785156 218.984375 Z M 265.785156 218.984375 " fill-opacity="1" fill-rule="nonzero"/><path fill="#ce4044" d="M 256.210938 205.773438 C 255.550781 212.929688 254.015625 219.234375 250.800781 223.917969 C 248.925781 226.65625 246.476562 228.839844 243.296875 230.316406 C 233.53125 224.433594 225.351562 215.765625 217.464844 206.582031 C 214.097656 201.390625 213.382812 194.410156 214.941406 188.613281 C 216.964844 181.074219 222.824219 175.523438 231.667969 178.488281 C 240.023438 184.566406 248.214844 193.488281 256.210938 205.773438 Z M 256.210938 205.773438 " fill-opacity="1" fill-rule="nonzero"/><path fill="#e4484c" d="M 250.800781 223.917969 C 248.925781 226.65625 246.476562 228.839844 243.296875 230.316406 C 233.53125 224.433594 225.351562 215.765625 217.464844 206.582031 C 214.097656 201.390625 213.382812 194.410156 214.941406 188.613281 C 222.164062 200.632812 234.011719 212.40625 250.800781 223.917969 Z M 250.800781 223.917969 " fill-opacity="1" fill-rule="nonzero"/><path fill="#ce4044" d="M 294.042969 172.6875 C 293.347656 189.121094 282.449219 209.238281 270.683594 224.234375 C 268.929688 226.46875 265.984375 227.378906 263.273438 226.554688 C 261.75 226.089844 260.332031 225.527344 259.019531 224.863281 C 255.675781 223.171875 253.019531 220.84375 251.023438 217.914062 C 250.113281 216.585938 249.339844 215.136719 248.699219 213.566406 C 248.246094 212.460938 248.101562 211.25 248.257812 210.066406 C 250.710938 191.519531 256.703125 175.308594 268.125 162.695312 C 269.109375 161.605469 270.433594 160.882812 271.875 160.597656 C 275.152344 159.949219 278.253906 160.023438 281.1875 160.800781 C 283.3125 161.359375 285.34375 162.285156 287.289062 163.5625 C 288.976562 164.671875 290.597656 166.035156 292.15625 167.664062 C 293.449219 169.003906 294.121094 170.824219 294.042969 172.6875 Z M 294.042969 172.6875 " fill-opacity="1" fill-rule="nonzero"/><path fill="#e4484c" d="M 281.1875 160.800781 C 265.058594 182.417969 253.832031 201.953125 251.023438 217.914062 C 250.113281 216.585938 249.339844 215.136719 248.699219 213.566406 C 248.246094 212.460938 248.101562 211.25 248.257812 210.066406 C 250.710938 191.519531 256.703125 175.308594 268.125 162.695312 C 269.109375 161.605469 270.433594 160.882812 271.875 160.597656 C 275.152344 159.949219 278.253906 160.023438 281.1875 160.800781 Z M 281.1875 160.800781 " fill-opacity="1" fill-rule="nonzero"/><path fill="#2a245e" d="M 285.382812 141.296875 C 279.804688 144.796875 277.859375 149.386719 282.835938 149.894531 C 283.199219 149.929688 283.570312 149.925781 283.933594 149.890625 C 287.882812 149.5 289.667969 147.386719 289.71875 143.902344 C 289.757812 141.308594 288.746094 138.796875 287.003906 136.792969 C 287.003906 136.792969 284.429688 133.835938 284.429688 133.835938 C 283.175781 132.394531 282.78125 130.40625 283.542969 128.683594 C 284.257812 127.078125 285.804688 125.941406 287.902344 125.707031 C 290.308594 125.445312 292.660156 126.527344 294.074219 128.386719 C 304.34375 141.867188 304.535156 154.566406 286.824219 159.566406 C 284.570312 160.203125 282.136719 160.136719 279.988281 159.226562 C 273.191406 156.355469 269.308594 147.359375 273.347656 140.445312 C 274.125 139.117188 275.1875 137.945312 276.5 137.0625 C 277.613281 136.3125 278.8125 135.804688 280.089844 135.53125 C 284.699219 134.351562 288.105469 136.339844 286.9375 139.753906 C 286.707031 140.433594 286.019531 140.902344 285.382812 141.296875 Z M 285.382812 141.296875 " fill-opacity="1" fill-rule="nonzero"/><path fill="#2a245e" d="M 94.242188 221.425781 C 94.242188 228.375 99.878906 234.011719 106.828125 234.011719 C 113.78125 234.011719 119.414062 228.375 119.414062 221.425781 C 119.414062 214.472656 113.78125 208.839844 106.828125 208.839844 C 99.878906 208.839844 94.242188 214.472656 94.242188 221.425781 Z M 94.242188 221.425781 " fill-opacity="1" fill-rule="nonzero"/><path fill="#ce4044" d="M 103.816406 207.714844 C 104.476562 214.871094 106.011719 221.175781 109.226562 225.859375 C 111.101562 228.597656 113.550781 230.78125 116.734375 232.257812 C 126.496094 226.375 134.675781 217.707031 142.566406 208.523438 C 145.933594 203.328125 146.648438 196.351562 145.089844 190.554688 C 143.066406 183.015625 137.207031 177.464844 128.359375 180.429688 C 120.003906 186.507812 111.8125 195.425781 103.816406 207.714844 Z M 103.816406 207.714844 " fill-opacity="1" fill-rule="nonzero"/><path fill="#e4484c" d="M 109.226562 225.859375 C 111.101562 228.597656 113.550781 230.78125 116.734375 232.257812 C 126.496094 226.375 134.675781 217.707031 142.566406 208.519531 C 145.933594 203.328125 146.648438 196.351562 145.089844 190.554688 C 137.863281 202.574219 126.015625 214.347656 109.226562 225.859375 Z M 109.226562 225.859375 " fill-opacity="1" fill-rule="nonzero"/><path fill="#ce4044" d="M 111.332031 215.507812 C 109.925781 218.941406 107.898438 221.800781 105.210938 224.050781 C 103.953125 225.101562 102.558594 226.019531 101.007812 226.804688 C 99.695312 227.464844 98.28125 228.027344 96.753906 228.496094 C 94.042969 229.320312 91.097656 228.410156 89.347656 226.175781 C 77.582031 211.179688 66.679688 191.058594 65.984375 174.628906 C 65.910156 172.765625 66.578125 170.945312 67.871094 169.601562 C 69.429688 167.976562 71.050781 166.613281 72.738281 165.503906 C 75.75 163.53125 78.96875 162.394531 82.398438 162.152344 C 84.253906 162.019531 86.171875 162.144531 88.152344 162.539062 C 89.59375 162.824219 90.917969 163.546875 91.902344 164.636719 C 103.324219 177.253906 109.316406 193.460938 111.769531 212.003906 C 111.925781 213.191406 111.78125 214.402344 111.332031 215.507812 Z M 111.332031 215.507812 " fill-opacity="1" fill-rule="nonzero"/><path fill="#e4484c" d="M 111.332031 215.507812 C 109.925781 218.941406 107.898438 221.800781 105.210938 224.050781 C 100.371094 201.8125 93.355469 180.84375 82.398438 162.152344 C 84.253906 162.019531 86.171875 162.144531 88.152344 162.539062 C 89.59375 162.824219 90.917969 163.546875 91.902344 164.636719 C 103.324219 177.253906 109.316406 193.460938 111.769531 212.003906 C 111.925781 213.191406 111.78125 214.402344 111.332031 215.507812 Z M 111.332031 215.507812 " fill-opacity="1" fill-rule="nonzero"/><path fill="#2a245e" d="M 74.644531 143.238281 C 80.222656 146.738281 82.167969 151.328125 77.191406 151.835938 C 76.828125 151.871094 76.457031 151.867188 76.09375 151.832031 C 72.144531 151.441406 70.363281 149.328125 70.308594 145.84375 C 70.269531 143.25 71.28125 140.738281 73.023438 138.734375 C 73.023438 138.734375 75.601562 135.777344 75.601562 135.777344 C 76.855469 134.335938 77.246094 132.347656 76.484375 130.625 C 75.769531 129.019531 74.222656 127.882812 72.125 127.648438 C 69.71875 127.382812 67.371094 128.46875 65.957031 130.328125 C 55.6875 143.808594 55.492188 156.507812 73.207031 161.507812 C 75.460938 162.144531 77.890625 162.074219 80.039062 161.167969 C 86.835938 158.296875 90.722656 149.300781 86.679688 142.386719 C 85.90625 141.058594 84.839844 139.886719 83.53125 139.003906 C 82.417969 138.253906 81.21875 137.746094 79.9375 137.472656 C 75.332031 136.292969 71.921875 138.28125 73.089844 141.695312 C 73.324219 142.375 74.011719 142.84375 74.644531 143.238281 Z M 74.644531 143.238281 " fill-opacity="1" fill-rule="nonzero"/><path fill="#e4484c" d="M 186.558594 256.554688 C 179.191406 258.085938 171.582031 258.15625 164.234375 256.53125 C 135.855469 250.25 123.667969 225.183594 124.273438 185.257812 C 124.273438 185.257812 129.773438 184.882812 129.773438 184.882812 C 129.773438 184.882812 225.273438 178.417969 225.273438 178.417969 C 225.273438 178.417969 231.121094 178.019531 231.121094 178.019531 C 237.46875 220.539062 225.011719 248.5625 186.558594 256.554688 Z M 186.558594 256.554688 " fill-opacity="1" fill-rule="nonzero"/><path fill="#ce4044" d="M 185.164062 247.519531 C 178.601562 248.921875 171.820312 248.996094 165.28125 247.53125 C 140.496094 241.976562 129.613281 219.96875 129.773438 184.882812 C 129.773438 184.882812 225.273438 178.417969 225.273438 178.417969 C 230.097656 215.738281 218.734375 240.351562 185.164062 247.519531 Z M 185.164062 247.519531 " fill-opacity="1" fill-rule="nonzero"/><path fill="#2a245e" d="M 210.308594 203.28125 C 213.078125 203.359375 216.21875 202.941406 219.609375 202.1875 C 220.5 201.988281 221.332031 202.707031 221.269531 203.617188 C 220.789062 210.28125 219.386719 216.109375 216.96875 221.03125 C 216.671875 221.640625 216.140625 222.113281 215.496094 222.328125 C 210.914062 223.859375 207.382812 223.585938 204.621094 222.007812 C 204.097656 221.710938 203.839844 221.101562 204.003906 220.523438 C 204.003906 220.523438 208.472656 204.632812 208.472656 204.632812 C 208.703125 203.8125 209.460938 203.253906 210.308594 203.28125 Z M 210.308594 203.28125 " fill-opacity="1" fill-rule="nonzero"/><path fill="#f0c808" d="M 210.296875 206.347656 C 210.296875 206.347656 208.90625 210.347656 208.90625 210.347656 C 208.90625 210.347656 218.390625 210.304688 218.390625 210.304688 C 218.390625 210.304688 219.398438 206.125 219.398438 206.125 C 219.398438 206.125 210.296875 206.347656 210.296875 206.347656 Z M 210.296875 206.347656 " fill-opacity="1" fill-rule="nonzero"/><path fill="#f0c808" d="M 208.582031 212.246094 C 208.582031 212.246094 217.757812 212.332031 217.757812 212.332031 C 217.757812 212.332031 216.605469 215.640625 216.605469 215.640625 C 216.605469 215.640625 207.609375 215.46875 207.609375 215.46875 C 207.609375 215.46875 208.582031 212.246094 208.582031 212.246094 Z M 208.582031 212.246094 " fill-opacity="1" fill-rule="nonzero"/><path fill="#f0c808" d="M 207.675781 217.636719 C 207.675781 217.636719 216.148438 217.664062 216.148438 217.664062 C 216.148438 217.664062 215.074219 220.875 215.074219 220.875 C 215.074219 220.875 206.4375 220.375 206.4375 220.375 C 206.4375 220.375 207.675781 217.636719 207.675781 217.636719 Z M 207.675781 217.636719 " fill-opacity="1" fill-rule="nonzero"/><path fill="#2a245e" d="M 124.273438 185.257812 C 140.355469 199.65625 227.089844 193.910156 231.117188 178.023438 C 221.238281 159.449219 125.855469 165.746094 124.273438 185.257812 Z M 124.273438 185.257812 " fill-opacity="1" fill-rule="nonzero"/><path fill="#2a245e" d="M 185.765625 81.195312 C 184.96875 89.738281 182.519531 95.8125 179.277344 100.703125 C 179.277344 100.703125 189.652344 101.28125 189.652344 101.28125 C 186.40625 95.601562 186.457031 89.03125 189.054688 81.769531 C 189.054688 81.769531 185.765625 81.195312 185.765625 81.195312 Z M 185.765625 81.195312 " fill-opacity="1" fill-rule="nonzero"/><path fill="#ce4044" d="M 194.742188 107.75 C 194.742188 107.75 189.160156 107.246094 189.160156 107.246094 C 189.160156 107.246094 171.285156 105.648438 171.285156 105.648438 C 172.914062 101.839844 176.355469 99.296875 184.441406 99.964844 C 185.710938 100.105469 186.902344 100.265625 188 100.464844 C 193 101.359375 195.988281 103.046875 194.742188 107.75 Z M 194.742188 107.75 " fill-opacity="1" fill-rule="nonzero"/><path fill="#e4484c" d="M 194.742188 107.75 C 194.742188 107.75 189.160156 107.246094 189.160156 107.246094 C 190.460938 105.457031 189.847656 103.128906 188 100.464844 C 193 101.359375 195.988281 103.046875 194.742188 107.75 Z M 194.742188 107.75 " fill-opacity="1" fill-rule="nonzero"/><path fill="#f0c808" d="M 194.941406 78.195312 C 194.292969 81.914062 190.753906 84.402344 187.035156 83.753906 C 183.320312 83.101562 180.832031 79.5625 181.480469 75.847656 C 182.128906 72.128906 185.671875 69.640625 189.386719 70.292969 C 193.105469 70.941406 195.589844 74.480469 194.941406 78.195312 Z M 194.941406 78.195312 " fill-opacity="1" fill-rule="nonzero"/><path fill="#ce4044" d="M 224.753906 163.5625 C 224.628906 164.621094 224.078125 165.589844 223.222656 166.226562 C 215.746094 171.785156 206.734375 175.730469 197.003906 177.914062 C 175.300781 182.800781 150.046875 178.953125 130.445312 164.851562 C 128.4375 163.40625 127.558594 160.851562 128.246094 158.472656 C 134.625 136.386719 137.324219 111.921875 168.742188 106.058594 C 175.6875 104.761719 182.792969 104.867188 189.636719 106.363281 C 192.367188 106.957031 195.0625 107.769531 197.6875 108.808594 C 218.066406 116.863281 228.296875 134.027344 224.753906 163.5625 Z M 224.753906 163.5625 " fill-opacity="1" fill-rule="nonzero"/><path fill="#e4484c" d="M 223.15625 166.273438 C 215.695312 171.808594 206.707031 175.734375 197.003906 177.914062 C 208.425781 160.039062 208.101562 125.199219 189.636719 106.363281 C 192.367188 106.957031 195.0625 107.773438 197.6875 108.808594 C 218.046875 116.855469 228.28125 133.996094 224.765625 163.484375 C 224.632812 164.59375 224.054688 165.609375 223.15625 166.273438 Z M 223.15625 166.273438 " fill-opacity="1" fill-rule="nonzero"/><path fill="#2a245e" d="M 184.058594 116.554688 C 157.824219 113.617188 146.929688 127.734375 141.015625 147.394531 C 136.824219 164.253906 152.929688 171.582031 170.964844 166.984375 C 176.023438 165.695312 181.34375 165.75 186.300781 167.390625 C 201.238281 172.335938 214.285156 169.078125 213.722656 151.769531 C 215.09375 129.890625 202.554688 120.539062 184.058594 116.554688 Z M 184.058594 116.554688 " fill-opacity="1" fill-rule="nonzero"/><path fill="#ce4044" d="M 198.65625 272.195312 C 198.429688 272.503906 198.113281 272.753906 197.746094 272.910156 C 193.699219 274.636719 189.675781 275.824219 185.667969 276.476562 C 176.609375 277.945312 167.648438 276.671875 158.78125 272.734375 C 158.351562 272.542969 157.996094 272.226562 157.761719 271.835938 C 156.507812 269.703125 156.152344 267.605469 156.652344 265.546875 C 156.929688 264.394531 158.167969 263.699219 159.386719 263.996094 C 168.804688 266.277344 178.207031 266.859375 187.59375 265.546875 C 190.921875 265.089844 194.246094 264.382812 197.570312 263.4375 C 198.953125 263.046875 200.382812 263.984375 200.476562 265.34375 C 200.660156 267.929688 200.113281 270.234375 198.65625 272.195312 Z M 198.65625 272.195312 " fill-opacity="1" fill-rule="nonzero"/><path fill="#e4484c" d="M 198.65625 272.195312 C 198.429688 272.503906 198.113281 272.753906 197.746094 272.910156 C 193.699219 274.636719 189.675781 275.824219 185.667969 276.472656 C 189.667969 273.601562 190.722656 270.054688 187.59375 265.546875 C 190.921875 265.089844 194.246094 264.382812 197.570312 263.4375 C 198.953125 263.046875 200.382812 263.984375 200.476562 265.34375 C 200.660156 267.929688 200.113281 270.234375 198.65625 272.195312 Z M 198.65625 272.195312 " fill-opacity="1" fill-rule="nonzero"/><path fill="#ce4044" d="M 194.238281 284.160156 C 194.128906 284.601562 193.972656 285.046875 193.773438 285.480469 C 193.210938 286.71875 192.070312 287.652344 190.699219 288.03125 C 188.785156 288.5625 186.84375 289 184.875 289.34375 C 179.496094 290.289062 173.914062 290.542969 168.121094 290.144531 C 166.117188 290.003906 164.285156 288.980469 163.210938 287.371094 C 162.65625 286.542969 162.296875 285.753906 162.164062 285.011719 C 161.855469 283.296875 163.328125 281.769531 165.164062 281.863281 C 172.515625 282.238281 179.550781 282.195312 186.128906 281.53125 C 187.785156 281.363281 189.410156 281.15625 191.003906 280.910156 C 192.992188 280.59375 194.683594 282.304688 194.238281 284.160156 Z M 194.238281 284.160156 " fill-opacity="1" fill-rule="nonzero"/><path fill="#e4484c" d="M 194.238281 284.160156 C 194.128906 284.601562 193.972656 285.046875 193.773438 285.480469 C 193.210938 286.71875 192.070312 287.652344 190.699219 288.03125 C 188.785156 288.5625 186.84375 289 184.875 289.34375 C 186.511719 287.128906 187.082031 284.574219 186.128906 281.53125 C 187.785156 281.363281 189.410156 281.15625 191.003906 280.910156 C 192.992188 280.59375 194.683594 282.304688 194.238281 284.160156 Z M 194.238281 284.160156 " fill-opacity="1" fill-rule="nonzero"/><path fill="#f0c808" d="M 232.335938 121.386719 C 232.335938 121.386719 251.921875 117.824219 251.921875 117.824219 C 252.601562 117.699219 252.96875 116.953125 252.652344 116.335938 C 252.652344 116.335938 247.519531 106.382812 247.519531 106.382812 C 247.203125 105.777344 246.398438 105.636719 245.898438 106.101562 C 245.898438 106.101562 231.449219 119.617188 231.449219 119.617188 C 230.699219 120.320312 231.324219 121.570312 232.335938 121.386719 Z M 232.335938 121.386719 " fill-opacity="1" fill-rule="nonzero"/><path fill="#f0c808" d="M 233.152344 136.253906 C 233.152344 136.253906 249.699219 147.316406 249.699219 147.316406 C 250.273438 147.703125 251.058594 147.421875 251.257812 146.757812 C 251.257812 146.757812 254.492188 136.035156 254.492188 136.035156 C 254.691406 135.382812 254.207031 134.71875 253.527344 134.707031 C 253.527344 134.707031 233.742188 134.367188 233.742188 134.367188 C 232.714844 134.347656 232.300781 135.679688 233.152344 136.253906 Z M 233.152344 136.253906 " fill-opacity="1" fill-rule="nonzero"/><path fill="#f0c808" d="M 131.917969 117.914062 C 131.917969 117.914062 114.792969 107.765625 114.792969 107.765625 C 114.199219 107.414062 114.113281 106.585938 114.625 106.117188 C 114.625 106.117188 122.898438 98.570312 122.898438 98.570312 C 123.402344 98.109375 124.207031 98.261719 124.515625 98.871094 C 124.515625 98.871094 133.363281 116.566406 133.363281 116.566406 C 133.824219 117.488281 132.800781 118.4375 131.917969 117.914062 Z M 131.917969 117.914062 " fill-opacity="1" fill-rule="nonzero"/><path fill="#f0c808" d="M 125.980469 131.570312 C 125.980469 131.570312 106.621094 136.191406 106.621094 136.191406 C 105.949219 136.355469 105.3125 135.816406 105.355469 135.125 C 105.355469 135.125 106.046875 123.949219 106.046875 123.949219 C 106.089844 123.265625 106.773438 122.8125 107.417969 123.039062 C 107.417969 123.039062 126.085938 129.597656 126.085938 129.597656 C 127.054688 129.9375 126.980469 131.332031 125.980469 131.570312 Z M 125.980469 131.570312 " fill-opacity="1" fill-rule="nonzero"/><path stroke-linecap="round" transform="matrix(0.266667, 0, 0, 0.266667, 163.005068, 140.375715)" fill="none" stroke-linejoin="round" d="M -22.269983 12.53638 C -13.773889 -4.221433 -0.150842 -12.541745 22.275917 -6.345456 " stroke="#f0c808" stroke-width="7" stroke-opacity="1" stroke-miterlimit="4"/><path stroke-linecap="round" transform="matrix(0.266667, 0, 0, 0.266667, 195.577858, 141.992245)" fill="none" stroke-linejoin="round" d="M 22.281274 12.538848 C 13.770531 -4.218965 0.147484 -12.539278 -22.279275 -6.342989 " stroke="#f0c808" stroke-width="7" stroke-opacity="1" stroke-miterlimit="4"/><path stroke-linecap="round" transform="matrix(0.266667, 0, 0, 0.266667, 179.089593, 149.072259)" fill="none" stroke-linejoin="round" d="M -20.624062 -6.657689 C -6.122108 3.596218 7.793908 6.657741 20.62594 -4.006322 " stroke="#f0c808" stroke-width="7" stroke-opacity="1" stroke-miterlimit="4"/></svg>