<svg xmlns="http://www.w3.org/2000/svg" xmlns:xlink="http://www.w3.org/1999/xlink" zoomAndPan="magnify" preserveAspectRatio="xMidYMid meet" version="1.0" viewBox="72.23 60.05 211.57 247.31"><path fill="#2a245e" d="M 254.097656 259.390625 C 262.433594 259.691406 269.964844 260.820312 274.976562 264.535156 C 275.664062 265.042969 276.054688 265.867188 275.996094 266.71875 C 275.214844 277.851562 269.121094 282.390625 260.382812 283.644531 C 257.175781 283.238281 256.074219 281.589844 257.769531 278.304688 C 252.617188 278.484375 251.09375 275.769531 253.273438 270.101562 C 250.304688 270.738281 248.738281 270.003906 249.191406 267.289062 C 249.375 266.175781 249.871094 265.140625 250.570312 264.253906 C 251.34375 263.269531 251.894531 262.160156 252.171875 260.90625 C 252.371094 260 253.171875 259.359375 254.097656 259.390625 Z M 254.097656 259.390625 " fill-opacity="1" fill-rule="nonzero"></path><path fill="#2a245e" d="M 270.335938 203.632812 C 272.871094 207.566406 274.171875 211.5 274.179688 215.433594 C 274.179688 215.433594 250.953125 224.4375 250.953125 224.4375 C 248.640625 220.605469 248.914062 216.894531 252.414062 213.335938 C 252.414062 213.335938 270.335938 203.632812 270.335938 203.632812 Z M 270.335938 203.632812 " fill-opacity="1" fill-rule="nonzero"></path><path fill="#ce4044" d="M 273.117188 203.273438 C 273.195312 203.605469 273.046875 203.957031 272.75 204.128906 C 272.75 204.128906 269.035156 206.328125 269.035156 206.328125 C 269.035156 206.328125 249.175781 218.078125 249.175781 218.078125 C 238.753906 198.347656 234.285156 179.804688 247.613281 172.964844 C 248.582031 172.46875 249.640625 172.035156 250.800781 171.664062 C 263.257812 172.398438 269.074219 186.101562 273.117188 203.273438 Z M 273.117188 203.273438 " fill-opacity="1" fill-rule="nonzero"></path><path fill="#e4484c" d="M 272.722656 204.144531 C 272.722656 204.144531 269.035156 206.328125 269.035156 206.328125 C 265.875 190.542969 259.273438 178.78125 247.613281 172.964844 C 248.582031 172.46875 249.640625 172.035156 250.800781 171.664062 C 263.25 172.398438 269.066406 186.085938 273.109375 203.242188 C 273.191406 203.59375 273.035156 203.960938 272.722656 204.144531 Z M 272.722656 204.144531 " fill-opacity="1" fill-rule="nonzero"></path><path fill="#ce4044" d="M 283.019531 252.839844 C 282.816406 254.152344 281.820312 255.199219 280.527344 255.519531 C 278.207031 256.09375 275.832031 256.507812 273.402344 256.761719 C 267.550781 257.375 261.394531 257.078125 254.964844 255.953125 C 254.46875 255.867188 254.023438 255.597656 253.722656 255.199219 C 247.296875 246.714844 243.675781 236.746094 248.394531 222.359375 C 249.28125 223.503906 259.949219 219.921875 267.542969 216.621094 C 270.980469 215.128906 273.78125 213.695312 274.777344 212.78125 C 275.03125 212.546875 275.4375 212.609375 275.601562 212.910156 C 283.714844 227.75 284.914062 240.714844 283.019531 252.839844 Z M 283.019531 252.839844 " fill-opacity="1" fill-rule="nonzero"></path><path fill="#e4484c" d="M 280.527344 255.519531 C 278.207031 256.09375 275.832031 256.507812 273.402344 256.761719 C 275.257812 242.367188 274.015625 228.800781 267.542969 216.621094 C 270.988281 215.125 273.796875 213.6875 274.785156 212.773438 C 275.035156 212.542969 275.433594 212.605469 275.597656 212.902344 C 283.714844 227.746094 284.914062 240.714844 283.019531 252.839844 C 282.8125 254.15625 281.820312 255.199219 280.527344 255.519531 Z M 280.527344 255.519531 " fill-opacity="1" fill-rule="nonzero"></path><path fill="#ce4044" d="M 216.300781 272.316406 C 216.300781 272.316406 216.296875 272.316406 216.296875 272.316406 C 215.136719 272.554688 213.949219 272.765625 212.730469 272.949219 C 209.554688 273.144531 206.558594 273.101562 203.726562 272.835938 C 168.769531 269.582031 159.152344 232.226562 155.789062 186.453125 C 155.789062 186.453125 191.976562 180.816406 191.976562 180.816406 C 191.976562 180.816406 222.457031 176.074219 222.457031 176.074219 C 222.457031 176.074219 222.46875 176.070312 222.46875 176.070312 C 222.46875 176.070312 250.878906 171.648438 250.878906 171.648438 C 259.3125 228.492188 253.003906 264.734375 216.300781 272.316406 Z M 216.300781 272.316406 " fill-opacity="1" fill-rule="nonzero"></path><path fill="#e4484c" d="M 216.300781 272.316406 C 233.566406 267.355469 237.753906 202.925781 222.457031 176.074219 C 222.457031 176.074219 222.46875 176.070312 222.46875 176.070312 C 222.46875 176.070312 250.878906 171.648438 250.878906 171.648438 C 259.3125 228.492188 253.003906 264.734375 216.300781 272.316406 Z M 216.300781 272.316406 " fill-opacity="1" fill-rule="nonzero"></path><path fill="#2a245e" d="M 235.003906 192.640625 C 235.003906 192.640625 243.796875 190.867188 243.796875 190.867188 C 244.910156 190.644531 245.945312 191.492188 245.945312 192.625 C 245.945312 192.625 245.945312 212.265625 245.945312 212.265625 C 245.945312 213.054688 245.433594 213.757812 244.679688 213.984375 C 241.773438 214.851562 238.765625 215.140625 235.679688 214.980469 C 234.734375 214.929688 233.984375 214.167969 233.964844 213.226562 C 233.964844 213.226562 233.566406 194.4375 233.566406 194.4375 C 233.546875 193.570312 234.152344 192.8125 235.003906 192.640625 Z M 235.003906 192.640625 " fill-opacity="1" fill-rule="nonzero"></path><path fill="#f0c808" d="M 235.445312 195.804688 C 235.445312 195.804688 235.632812 198.304688 235.632812 198.304688 C 235.664062 198.707031 236.035156 198.996094 236.433594 198.925781 C 236.433594 198.925781 243.34375 197.699219 243.34375 197.699219 C 243.667969 197.644531 243.90625 197.359375 243.90625 197.027344 C 243.90625 197.027344 243.90625 194.195312 243.90625 194.195312 C 243.90625 193.761719 243.503906 193.433594 243.078125 193.527344 C 243.078125 193.527344 235.980469 195.085938 235.980469 195.085938 C 235.648438 195.15625 235.417969 195.464844 235.445312 195.804688 Z M 235.445312 195.804688 " fill-opacity="1" fill-rule="nonzero"></path><path fill="#f0c808" d="M 235.808594 201.945312 C 235.808594 201.945312 235.808594 204.402344 235.808594 204.402344 C 235.808594 204.792969 236.132812 205.105469 236.519531 205.085938 C 236.519531 205.085938 243.289062 204.796875 243.289062 204.796875 C 243.640625 204.78125 243.921875 204.5 243.941406 204.152344 C 243.941406 204.152344 244.148438 200.53125 244.148438 200.53125 C 244.171875 200.082031 243.765625 199.730469 243.324219 199.820312 C 243.324219 199.820312 236.351562 201.273438 236.351562 201.273438 C 236.035156 201.339844 235.808594 201.621094 235.808594 201.945312 Z M 235.808594 201.945312 " fill-opacity="1" fill-rule="nonzero"></path><path fill="#f0c808" d="M 235.808594 208.710938 C 235.808594 208.710938 235.808594 211.558594 235.808594 211.558594 C 235.808594 211.953125 236.140625 212.265625 236.535156 212.238281 C 236.535156 212.238281 243.558594 211.800781 243.558594 211.800781 C 243.917969 211.777344 244.199219 211.480469 244.199219 211.117188 C 244.199219 211.117188 244.199219 208.027344 244.199219 208.027344 C 244.199219 207.625 243.851562 207.308594 243.449219 207.347656 C 243.449219 207.347656 236.425781 208.03125 236.425781 208.03125 C 236.074219 208.0625 235.808594 208.359375 235.808594 208.710938 Z M 235.808594 208.710938 " fill-opacity="1" fill-rule="nonzero"></path><path fill="#2a245e" d="M 157.808594 189.246094 C 172.605469 196.152344 238.574219 185.644531 249.976562 174.636719 C 251.761719 172.910156 250.984375 169.886719 248.605469 169.179688 C 233.046875 164.550781 170.859375 172.566406 157.148438 183.171875 C 155.039062 184.804688 155.390625 188.117188 157.808594 189.246094 Z M 157.808594 189.246094 " fill-opacity="1" fill-rule="nonzero"></path><path fill="#ce4044" d="M 230.027344 286.429688 C 229.832031 286.765625 229.546875 287.046875 229.207031 287.234375 C 225.445312 289.347656 221.660156 290.898438 217.847656 291.902344 C 209.230469 294.167969 200.496094 293.625 191.632812 290.347656 C 191.203125 290.1875 190.835938 289.894531 190.582031 289.515625 C 189.199219 287.4375 188.691406 285.324219 189.007812 283.179688 C 189.1875 281.980469 190.324219 281.164062 191.523438 281.359375 C 200.78125 282.898438 209.890625 282.699219 218.835938 280.570312 C 222.003906 279.816406 225.152344 278.816406 228.285156 277.570312 C 229.582031 277.054688 231.039062 277.890625 231.238281 279.273438 C 231.621094 281.898438 231.273438 284.300781 230.027344 286.429688 Z M 230.027344 286.429688 " fill-opacity="1" fill-rule="nonzero"></path><path fill="#e4484c" d="M 230.027344 286.429688 C 229.832031 286.765625 229.546875 287.046875 229.207031 287.234375 C 225.445312 289.347656 221.660156 290.898438 217.847656 291.902344 C 221.476562 288.628906 222.210938 284.914062 218.835938 280.570312 C 222.003906 279.816406 225.152344 278.816406 228.285156 277.570312 C 229.582031 277.054688 231.039062 277.890625 231.238281 279.273438 C 231.621094 281.898438 231.273438 284.300781 230.027344 286.429688 Z M 230.027344 286.429688 " fill-opacity="1" fill-rule="nonzero"></path><path fill="#ce4044" d="M 226.71875 299.035156 C 226.648438 299.5 226.535156 299.964844 226.375 300.425781 C 225.933594 301.738281 224.910156 302.789062 223.617188 303.292969 C 221.816406 304 219.976562 304.605469 218.105469 305.125 C 213 306.546875 207.636719 307.277344 202.023438 307.359375 C 200.078125 307.386719 198.230469 306.492188 197.066406 304.9375 C 196.464844 304.136719 196.058594 303.359375 195.871094 302.613281 C 195.433594 300.886719 196.734375 299.199219 198.511719 299.140625 C 205.628906 298.90625 212.40625 298.265625 218.695312 297.03125 C 220.277344 296.722656 221.828125 296.375 223.34375 295.984375 C 225.234375 295.496094 227.003906 297.101562 226.71875 299.035156 Z M 226.71875 299.035156 " fill-opacity="1" fill-rule="nonzero"></path><path fill="#e4484c" d="M 226.71875 299.035156 C 226.648438 299.5 226.535156 299.964844 226.375 300.425781 C 225.933594 301.738281 224.910156 302.789062 223.617188 303.292969 C 221.816406 304 219.976562 304.605469 218.105469 305.125 C 219.511719 302.722656 219.855469 300.0625 218.695312 297.03125 C 220.277344 296.722656 221.828125 296.375 223.34375 295.984375 C 225.234375 295.496094 227.003906 297.101562 226.71875 299.035156 Z M 226.71875 299.035156 " fill-opacity="1" fill-rule="nonzero"></path><path fill="#ce4044" d="M 210.457031 93.757812 C 210.457031 93.757812 204.46875 94.90625 204.46875 94.90625 C 204.46875 94.90625 189.828125 97.71875 189.828125 97.71875 C 189.898438 94.113281 189.453125 90.300781 199.441406 88.628906 C 199.792969 88.546875 200.132812 88.480469 200.472656 88.417969 C 206.273438 87.355469 209.890625 88.824219 210.457031 93.757812 Z M 210.457031 93.757812 " fill-opacity="1" fill-rule="nonzero"></path><path fill="#e4484c" d="M 203.914062 95.042969 C 204.710938 91.023438 203.5 89.101562 200.46875 88.421875 C 206.273438 87.355469 209.890625 88.828125 210.457031 93.757812 C 210.457031 93.757812 203.914062 95.042969 203.914062 95.042969 Z M 203.914062 95.042969 " fill-opacity="1" fill-rule="nonzero"></path><path fill="#2a245e" d="M 195.859375 67.96875 C 197.105469 76.679688 197.179688 83.929688 195.859375 89.441406 C 195.859375 89.441406 204.078125 88.097656 204.078125 88.097656 C 199.917969 83.066406 198.363281 75.507812 197.609375 67.183594 C 197.609375 67.183594 195.859375 67.96875 195.859375 67.96875 Z M 195.859375 67.96875 " fill-opacity="1" fill-rule="nonzero"></path><path fill="#f0c808" d="M 203.230469 66.601562 C 203.230469 70.207031 200.308594 73.128906 196.703125 73.128906 C 193.101562 73.128906 190.179688 70.207031 190.179688 66.601562 C 190.179688 62.996094 193.101562 60.074219 196.703125 60.074219 C 200.308594 60.074219 203.230469 62.996094 203.230469 66.601562 Z M 203.230469 66.601562 " fill-opacity="1" fill-rule="nonzero"></path><path fill="#f3d339" d="M 203.230469 66.601562 C 203.230469 70.207031 200.308594 73.128906 196.703125 73.128906 C 196.179688 73.128906 195.664062 73.066406 195.175781 72.949219 C 198.042969 72.257812 200.175781 69.679688 200.175781 66.601562 C 200.175781 63.523438 198.042969 60.941406 195.175781 60.253906 C 195.664062 60.136719 196.179688 60.074219 196.703125 60.074219 C 200.308594 60.074219 203.230469 62.996094 203.230469 66.601562 Z M 203.230469 66.601562 " fill-opacity="1" fill-rule="nonzero"></path><path fill="#ce4044" d="M 248.082031 148.257812 C 242.527344 151.128906 236.824219 153.675781 230.96875 155.894531 C 230.96875 155.894531 230.96875 155.898438 230.96875 155.898438 C 218.140625 160.757812 204.59375 164.054688 190.339844 165.820312 C 183.519531 166.667969 176.535156 167.164062 169.398438 167.3125 C 167.449219 167.351562 165.746094 166.007812 165.335938 164.105469 C 159.796875 138.65625 156.800781 114.390625 177.949219 101.375 C 183.175781 98.15625 189.882812 95.621094 198.394531 93.933594 C 200.347656 93.496094 202.246094 93.148438 204.089844 92.898438 C 231.546875 89.140625 247.121094 105.980469 250.140625 144.574219 C 250.261719 146.105469 249.441406 147.554688 248.082031 148.257812 Z M 248.082031 148.257812 " fill-opacity="1" fill-rule="nonzero"></path><path fill="#e4484c" d="M 248.082031 148.257812 C 242.527344 151.128906 237.753906 154.3125 221.132812 159.273438 C 224.167969 138.160156 231.109375 99.121094 204.082031 92.90625 C 204.082031 92.90625 204.089844 92.898438 204.089844 92.898438 C 231.546875 89.140625 247.121094 105.980469 250.140625 144.574219 C 250.261719 146.105469 249.441406 147.554688 248.082031 148.257812 Z M 248.082031 148.257812 " fill-opacity="1" fill-rule="nonzero"></path><path fill="#2a245e" d="M 191.65625 109.132812 C 174.242188 117.546875 172.671875 131.425781 175.667969 146.609375 C 179.59375 157.804688 189.726562 155.601562 203.710938 147.613281 C 207.757812 145.300781 212.492188 144.429688 217.082031 145.242188 C 232.1875 147.917969 244.550781 142.519531 238.371094 123.765625 C 233.347656 112.160156 223.789062 106.539062 210.511719 105.460938 C 204.191406 104.949219 197.96875 106.078125 191.65625 109.132812 Z M 191.65625 109.132812 " fill-opacity="1" fill-rule="nonzero"></path><path fill="#f0c808" d="M 192.722656 129.039062 C 193.179688 132.03125 192.261719 134.652344 190.671875 134.898438 C 189.082031 135.140625 187.421875 132.914062 186.960938 129.921875 C 186.503906 126.933594 187.421875 124.3125 189.011719 124.066406 C 190.601562 123.824219 192.265625 126.050781 192.722656 129.039062 Z M 192.722656 129.039062 " fill-opacity="1" fill-rule="nonzero"></path><path fill="#f0c808" d="M 223.859375 124.265625 C 224.316406 127.257812 223.398438 129.878906 221.808594 130.125 C 220.21875 130.367188 218.554688 128.140625 218.097656 125.152344 C 217.640625 122.160156 218.558594 119.539062 220.148438 119.292969 C 221.738281 119.050781 223.398438 121.277344 223.859375 124.265625 Z M 223.859375 124.265625 " fill-opacity="1" fill-rule="nonzero"></path><path fill="#f0c808" d="M 215.480469 132.324219 C 215.664062 134.664062 212.609375 138.964844 208.457031 139.285156 C 204.304688 139.605469 200.625 135.828125 200.445312 133.488281 C 200.261719 131.144531 203.734375 132.238281 207.886719 131.917969 C 212.039062 131.597656 215.300781 129.980469 215.480469 132.324219 Z M 215.480469 132.324219 " fill-opacity="1" fill-rule="nonzero"></path><path fill="#f0c808" d="M 147.5 89.625 C 147.5 89.625 150.246094 67.632812 150.246094 67.632812 C 150.339844 66.867188 151.148438 66.410156 151.851562 66.726562 C 151.851562 66.726562 163.238281 71.820312 163.238281 71.820312 C 163.933594 72.128906 164.136719 73.019531 163.648438 73.601562 C 163.648438 73.601562 149.515625 90.503906 149.515625 90.503906 C 148.78125 91.382812 147.355469 90.761719 147.5 89.625 Z M 147.5 89.625 " fill-opacity="1" fill-rule="nonzero"></path><path fill="#f0c808" d="M 113.410156 83.871094 C 113.410156 83.871094 100.320312 65.984375 100.320312 65.984375 C 99.863281 65.363281 100.140625 64.476562 100.867188 64.222656 C 100.867188 64.222656 112.644531 60.117188 112.644531 60.117188 C 113.363281 59.867188 114.121094 60.375 114.167969 61.132812 C 114.167969 61.132812 115.480469 83.125 115.480469 83.125 C 115.546875 84.269531 114.085938 84.796875 113.410156 83.871094 Z M 113.410156 83.871094 " fill-opacity="1" fill-rule="nonzero"></path><path fill="#f0c808" d="M 95.492188 107.070312 C 95.492188 107.070312 73.339844 106.328125 73.339844 106.328125 C 72.570312 106.300781 72.042969 105.539062 72.292969 104.808594 C 72.292969 104.808594 76.332031 93.011719 76.332031 93.011719 C 76.578125 92.289062 77.445312 92.003906 78.070312 92.4375 C 78.070312 92.4375 96.183594 104.980469 96.183594 104.980469 C 97.125 105.632812 96.636719 107.109375 95.492188 107.070312 Z M 95.492188 107.070312 " fill-opacity="1" fill-rule="nonzero"></path><path fill="#f0c808" d="M 103.097656 141.855469 C 103.097656 141.855469 88.746094 158.75 88.746094 158.75 C 88.25 159.335938 87.324219 159.277344 86.90625 158.625 C 86.90625 158.625 80.171875 148.128906 80.171875 148.128906 C 79.761719 147.488281 80.078125 146.632812 80.804688 146.414062 C 80.804688 146.414062 101.886719 140.015625 101.886719 140.015625 C 102.984375 139.683594 103.835938 140.984375 103.097656 141.855469 Z M 103.097656 141.855469 " fill-opacity="1" fill-rule="nonzero"></path><path fill="#2a245e" d="M 152.53125 210.921875 C 153.503906 215.496094 155.992188 218.289062 159.808594 219.519531 C 165.25 218.664062 170.238281 217.152344 173.734375 213.5 C 176.597656 209.394531 176.023438 205.136719 172.949219 200.761719 C 172.949219 200.761719 152.53125 210.921875 152.53125 210.921875 Z M 152.53125 210.921875 " fill-opacity="1" fill-rule="nonzero"></path><path fill="#ce4044" d="M 172.949219 200.761719 C 172.921875 201.671875 172.628906 202.558594 172.109375 203.300781 C 170.242188 205.949219 168.089844 207.949219 165.644531 209.304688 C 162.429688 211.101562 158.71875 211.78125 154.53125 211.394531 C 152.941406 211.242188 151.429688 210.589844 150.199219 209.566406 C 139.714844 200.875 131.378906 185.65625 124.59375 165.746094 C 123.703125 163.136719 125.265625 160.316406 127.945312 159.71875 C 135.292969 158.078125 142.121094 155.699219 148.441406 152.597656 C 150.195312 151.738281 151.914062 150.820312 153.585938 149.847656 C 155.859375 148.527344 158.789062 149.355469 160.0625 151.667969 C 169.09375 168.101562 173.460938 184.464844 172.949219 200.761719 Z M 172.949219 200.761719 " fill-opacity="1" fill-rule="nonzero"></path><path fill="#e4484c" d="M 172.945312 200.761719 C 172.917969 201.671875 172.628906 202.558594 172.109375 203.300781 C 170.242188 205.949219 168.089844 207.949219 165.644531 209.304688 C 164.90625 187.15625 160.464844 167.40625 148.441406 152.597656 C 150.195312 151.738281 151.914062 150.820312 153.585938 149.847656 C 155.859375 148.527344 158.789062 149.355469 160.0625 151.667969 C 169.09375 168.101562 173.460938 184.464844 172.945312 200.761719 Z M 172.945312 200.761719 " fill-opacity="1" fill-rule="nonzero"></path><path fill="#2a245e" d="M 146.195312 123.464844 C 147.851562 120.398438 149.683594 117.5625 152.253906 115.679688 C 153.0625 115.085938 154.015625 114.679688 155.019531 114.660156 C 160.578125 114.53125 163.355469 124.039062 159.773438 128.65625 C 156.609375 132.347656 153.101562 134.589844 149.359375 135.859375 C 149.359375 135.859375 146.195312 123.464844 146.195312 123.464844 Z M 146.195312 123.464844 " fill-opacity="1" fill-rule="nonzero"></path><path fill="#2a245e" d="M 133.773438 123.21875 C 130.890625 115.558594 128.980469 109.390625 128.117188 104.832031 C 127.308594 100.5625 130.675781 96.511719 135.011719 96.8125 C 135.152344 96.824219 135.289062 96.835938 135.429688 96.855469 C 137.359375 97.113281 139.003906 98.40625 139.847656 100.160156 C 142.160156 104.980469 143.328125 113.210938 144.121094 122.542969 C 144.121094 122.542969 133.773438 123.21875 133.773438 123.21875 Z M 133.773438 123.21875 " fill-opacity="1" fill-rule="nonzero"></path><path fill="#2a245e" d="M 122.351562 129.4375 C 118.335938 123.351562 114.203125 117.179688 112.097656 112.515625 C 110.949219 109.976562 111.125 106.980469 112.738281 104.703125 C 113.789062 103.21875 115.195312 102.394531 116.984375 102.296875 C 119.382812 102.167969 121.625 103.496094 122.835938 105.570312 C 125.570312 110.242188 128.148438 117.148438 130.703125 124.371094 C 130.703125 124.371094 122.351562 129.4375 122.351562 129.4375 Z M 122.351562 129.4375 " fill-opacity="1" fill-rule="nonzero"></path><path fill="#2a245e" d="M 120.003906 131.621094 C 117.578125 127.496094 115.160156 123.417969 112.90625 121 C 111.289062 119.269531 108.792969 118.558594 106.566406 119.359375 C 105.039062 119.910156 104.125 120.96875 103.785156 122.507812 C 103.457031 124.015625 103.8125 125.601562 104.679688 126.882812 C 107.722656 131.367188 111.832031 135.042969 116.308594 138.433594 C 116.308594 138.433594 120.003906 131.621094 120.003906 131.621094 Z M 120.003906 131.621094 " fill-opacity="1" fill-rule="nonzero"></path><path fill="#2a245e" d="M 116.308594 138.433594 C 117.179688 129.324219 137.519531 118.0625 146.195312 123.464844 C 151.878906 136.550781 150.109375 145.589844 139.3125 149.730469 C 128.714844 154.621094 121.113281 150.664062 116.308594 138.433594 Z M 116.308594 138.433594 " fill-opacity="1" fill-rule="nonzero"></path></svg>