<svg xmlns="http://www.w3.org/2000/svg" xmlns:xlink="http://www.w3.org/1999/xlink" width="1366" zoomAndPan="magnify" viewBox="0 0 1024.5 576" height="768" preserveAspectRatio="xMidYMid meet" version="1.0"><defs><filter x="0%" y="0%" width="100%" height="100%" id="70d8618ad9"><feColorMatrix values="0 0 0 0 1 0 0 0 0 1 0 0 0 0 1 0 0 0 1 0" color-interpolation-filters="sRGB"/></filter><clipPath id="b47165d075"><path d="M 123 80.945312 L 845 80.945312 L 845 487.445312 L 123 487.445312 Z M 123 80.945312 " clip-rule="nonzero"/></clipPath><mask id="a7c0ca9661"><g filter="url(#70d8618ad9)"><rect x="-102.45" width="1229.4" fill="#000000" y="-57.6" height="691.2" fill-opacity="0.4"/></g></mask><clipPath id="47ba685be1"><rect x="0" width="722" y="0" height="408"/></clipPath><clipPath id="c29e9ca246"><path d="M 116.328125 216 L 149 216 L 149 355 L 116.328125 355 Z M 116.328125 216 " clip-rule="nonzero"/></clipPath><clipPath id="db5a92498d"><path d="M 819 216 L 852.078125 216 L 852.078125 355 L 819 355 Z M 819 216 " clip-rule="nonzero"/></clipPath></defs><g clip-path="url(#b47165d075)"><g mask="url(#a7c0ca9661)"><g transform="matrix(1, 0, 0, 1, 123, 80)"><g clip-path="url(#47ba685be1)"><path fill="#ce4044" d="M 43.800781 1.25 L 678.601562 1.25 L 720.96875 43.464844 L 720.96875 364.773438 L 678.601562 406.988281 L 43.800781 406.988281 L 1.433594 364.773438 L 1.433594 43.464844 Z M 43.800781 1.25 " fill-opacity="1" fill-rule="nonzero"/></g></g></g></g><g clip-path="url(#c29e9ca246)"><path fill="#ce4044" d="M 116.328125 216.488281 L 129.847656 216.488281 L 148.792969 235.4375 L 148.792969 335.515625 L 129.847656 354.445312 L 116.328125 354.445312 Z M 116.328125 216.488281 " fill-opacity="1" fill-rule="nonzero"/></g><g clip-path="url(#db5a92498d)"><path fill="#ce4044" d="M 852.078125 216.488281 L 838.558594 216.488281 L 819.613281 235.4375 L 819.613281 335.515625 L 838.558594 354.445312 L 852.078125 354.445312 Z M 852.078125 216.488281 " fill-opacity="1" fill-rule="nonzero"/></g></svg>