<svg xmlns="http://www.w3.org/2000/svg" xmlns:xlink="http://www.w3.org/1999/xlink" width="1366" zoomAndPan="magnify" viewBox="0 0 1024.5 576" height="768" preserveAspectRatio="xMidYMid meet" version="1.0"><defs><filter x="0%" y="0%" width="100%" height="100%" id="52c6bf1f8c"><feColorMatrix values="0 0 0 0 1 0 0 0 0 1 0 0 0 0 1 0 0 0 1 0" color-interpolation-filters="sRGB"/></filter><mask id="1790cc5e8d"><g filter="url(#52c6bf1f8c)"><rect x="-102.45" width="1229.4" fill="#000000" y="-57.6" height="691.2" fill-opacity="0.91"/></g></mask><clipPath id="d2ff3502aa"><path d="M 464 0.851562 L 524 0.851562 L 524 26 L 464 26 Z M 464 0.851562 " clip-rule="nonzero"/></clipPath><clipPath id="55e3561661"><path d="M 418 0.851562 L 478 0.851562 L 478 26 L 418 26 Z M 418 0.851562 " clip-rule="nonzero"/></clipPath><clipPath id="ce73de2f35"><path d="M 0.828125 0.851562 L 979.578125 0.851562 L 979.578125 539.800781 L 0.828125 539.800781 Z M 0.828125 0.851562 " clip-rule="nonzero"/></clipPath><clipPath id="26af7b4c95"><rect x="0" width="980" y="0" height="541"/></clipPath></defs><g mask="url(#1790cc5e8d)"><g transform="matrix(1, 0, 0, 1, 22, 18)"><g clip-path="url(#26af7b4c95)"><path fill="#d9d9d9" d="M 49.511719 125.890625 L 49.511719 391.773438 L 168.378906 510.664062 L 301.199219 510.664062 L 317.75 494.089844 L 636.203125 494.089844 L 652.757812 510.664062 L 845.117188 510.664062 L 950.765625 404.902344 L 950.765625 384.214844 L 932.390625 365.835938 L 932.390625 140.246094 L 946.816406 125.816406 L 873.15625 52.015625 L 123.261719 52.015625 Z M 49.511719 125.890625 " fill-opacity="1" fill-rule="nonzero"/><g clip-path="url(#d2ff3502aa)"><path fill="#ce4044" d="M 513.84375 25.035156 L 513.914062 24.960938 L 523.777344 24.960938 L 499.722656 0.902344 L 464.886719 0.902344 L 489.011719 25.035156 Z M 513.84375 25.035156 " fill-opacity="1" fill-rule="nonzero"/></g><g clip-path="url(#55e3561661)"><path fill="#ce4044" d="M 477.582031 25.035156 L 453.457031 0.902344 L 418.636719 0.902344 L 442.761719 25.035156 Z M 477.582031 25.035156 " fill-opacity="1" fill-rule="nonzero"/></g><g clip-path="url(#ce73de2f35)"><path fill="#ce4044" d="M 885.148438 23.210938 L 568.53125 23.210938 L 546.226562 0.902344 L 511.121094 0.902344 L 535.191406 24.960938 L 884.371094 24.960938 L 977.828125 118.441406 L 977.828125 133.105469 L 959.4375 151.464844 L 959.4375 354.636719 L 977.8125 373.015625 L 977.8125 416.191406 L 856.316406 537.71875 L 641.542969 537.71875 L 624.988281 521.144531 L 329 521.144531 L 312.449219 537.71875 L 157.179688 537.71875 L 22.464844 402.972656 L 22.464844 114.691406 L 55.554688 81.59375 L 112.101562 25.035156 L 431.257812 25.035156 L 407.203125 0.902344 L 133.667969 0.902344 L 110.226562 24.347656 L 54.328125 80.257812 L 20.664062 113.933594 L 20.664062 173.613281 L 0.828125 193.453125 L 0.828125 338.980469 L 20.664062 358.820312 L 20.664062 403.710938 L 156.421875 539.503906 L 857.054688 539.503906 L 858.859375 537.699219 L 977.867188 418.664062 L 979.667969 416.859375 L 979.667969 117.703125 Z M 885.148438 23.210938 " fill-opacity="1" fill-rule="nonzero"/></g></g></g></g></svg>