<svg xmlns="http://www.w3.org/2000/svg" xmlns:xlink="http://www.w3.org/1999/xlink" width="1366" zoomAndPan="magnify" viewBox="0 0 1024.5 576" height="768" preserveAspectRatio="xMidYMid meet" version="1.0"><defs><filter x="0%" y="0%" width="100%" height="100%" id="5969818d8b"><feColorMatrix values="0 0 0 0 1 0 0 0 0 1 0 0 0 0 1 0 0 0 1 0" color-interpolation-filters="sRGB"/></filter><clipPath id="d31d289e52"><path d="M 331.789062 26 L 627.289062 26 L 627.289062 551 L 331.789062 551 Z M 331.789062 26 " clip-rule="nonzero"/></clipPath><mask id="a723d3e637"><g filter="url(#5969818d8b)"><rect x="-102.45" width="1229.4" fill="#000000" y="-57.6" height="691.2" fill-opacity="0.4"/></g></mask><clipPath id="a7775805bd"><path d="M 1 0.046875 L 296.289062 0.046875 L 296.289062 524.671875 L 1 524.671875 Z M 1 0.046875 " clip-rule="nonzero"/></clipPath><clipPath id="a6c94da8b1"><rect x="0" width="297" y="0" height="525"/></clipPath><clipPath id="d2c7dcbf45"><path d="M 428 20.527344 L 529 20.527344 L 529 45 L 428 45 Z M 428 20.527344 " clip-rule="nonzero"/></clipPath><clipPath id="d099050a31"><path d="M 428 532 L 529 532 L 529 556.027344 L 428 556.027344 Z M 428 532 " clip-rule="nonzero"/></clipPath></defs><g clip-path="url(#d31d289e52)"><g mask="url(#a723d3e637)"><g transform="matrix(1, 0, 0, 1, 331, 26)"><g clip-path="url(#a6c94da8b1)"><g clip-path="url(#a7775805bd)"><path fill="#ce4044" d="M 296.070312 31.261719 L 296.070312 493.289062 L 265.382812 524.125 L 31.808594 524.125 L 1.121094 493.289062 L 1.121094 31.261719 L 31.808594 0.425781 L 265.382812 0.425781 Z M 296.070312 31.261719 " fill-opacity="1" fill-rule="nonzero"/></g></g></g></g></g><g clip-path="url(#d2c7dcbf45)"><path fill="#ce4044" d="M 528.757812 20.527344 L 528.757812 30.367188 L 514.984375 44.15625 L 442.234375 44.15625 L 428.472656 30.367188 L 428.472656 20.527344 Z M 528.757812 20.527344 " fill-opacity="1" fill-rule="nonzero"/></g><g clip-path="url(#d099050a31)"><path fill="#ce4044" d="M 528.757812 556.027344 L 528.757812 546.1875 L 514.984375 532.398438 L 442.234375 532.398438 L 428.472656 546.1875 L 428.472656 556.027344 Z M 528.757812 556.027344 " fill-opacity="1" fill-rule="nonzero"/></g></svg>